<?xml version="1.0" encoding="UTF-8" standalone="no"?>
<!DOCTYPE svg PUBLIC "-//W3C//DTD SVG 1.1//EN"
 "http://www.w3.org/Graphics/SVG/1.1/DTD/svg11.dtd">
<!-- Generated by graphviz version 14.0.2 (20251019.1705)
 -->
<!-- Pages: 1 -->
<svg width="297pt" height="232pt"
 viewBox="0.00 0.00 297.00 232.00" xmlns="http://www.w3.org/2000/svg" xmlns:xlink="http://www.w3.org/1999/xlink">
<g id="graph0" class="graph" transform="scale(1 1) rotate(0) translate(4 228)">
<polygon fill="white" stroke="none" points="-4,4 -4,-228 292.91,-228 292.91,4 -4,4"/>
<g id="clust2" class="cluster">
<title>cluster_associated</title>
</g>
<!-- ItineraryByIndexedLocations -->
<g id="node1" class="node">
<title>ItineraryByIndexedLocations</title>
<g id="a_node1"><a xlink:href="../classes/itsLocation__ItineraryByIndexedLocations.md" xlink:title="&lt;TABLE&gt;">
<polygon fill="lightgray" stroke="none" points="125.25,-124.88 125.25,-141.12 278.75,-141.12 278.75,-124.88 125.25,-124.88"/>
<text xml:space="preserve" text-anchor="start" x="126.25" y="-128.72" font-family="Arial" font-size="12.00">ItineraryByIndexedLocations</text>
<polygon fill="none" stroke="black" points="124.25,-123.88 124.25,-142.12 279.75,-142.12 279.75,-123.88 124.25,-123.88"/>
</a>
</g>
</g>
<!-- Itinerary -->
<g id="node2" class="node">
<title>Itinerary</title>
<g id="a_node2"><a xlink:href="../_counters/itsLocation__Itinerary.md" xlink:title="&lt;TABLE&gt;">
<polygon fill="lightgray" stroke="none" points="179.62,-197.88 179.62,-214.12 224.38,-214.12 224.38,-197.88 179.62,-197.88"/>
<text xml:space="preserve" text-anchor="start" x="180.62" y="-201.72" font-family="Arial" font-size="12.00">Itinerary</text>
<polygon fill="none" stroke="black" points="178.62,-196.88 178.62,-215.12 225.38,-215.12 225.38,-196.88 178.62,-196.88"/>
</a>
</g>
</g>
<!-- ItineraryByIndexedLocations&#45;&gt;Itinerary -->
<g id="edge1" class="edge">
<title>ItineraryByIndexedLocations&#45;&gt;Itinerary</title>
<path fill="none" stroke="black" d="M202,-150.71C202,-158.47 202,-167.92 202,-176.74"/>
<polygon fill="none" stroke="black" points="198.5,-176.66 202,-186.66 205.5,-176.66 198.5,-176.66"/>
</g>
<!-- Invis -->
<!-- ItineraryByIndexedLocations&#45;&gt;Invis -->
<!-- IndexedLocation -->
<g id="node4" class="node">
<title>IndexedLocation</title>
<g id="a_node4"><a xlink:href="../_counters/itsLocation__IndexedLocation.md" xlink:title="&lt;TABLE&gt;">
<polygon fill="lightgray" stroke="none" points="16.75,-25.88 16.75,-42.12 107.25,-42.12 107.25,-25.88 16.75,-25.88"/>
<text xml:space="preserve" text-anchor="start" x="17.75" y="-29.73" font-family="Arial" font-size="12.00">IndexedLocation</text>
<polygon fill="none" stroke="black" points="15.75,-24.88 15.75,-43.12 108.25,-43.12 108.25,-24.88 15.75,-24.88"/>
</a>
</g>
</g>
<!-- ItineraryByIndexedLocations&#45;&gt;IndexedLocation -->
<g id="edge4" class="edge">
<title>ItineraryByIndexedLocations&#45;&gt;IndexedLocation</title>
<path fill="none" stroke="black" d="M177.61,-115.1C154.83,-99.32 120.62,-75.62 95.32,-58.09"/>
<polygon fill="black" stroke="black" points="97.56,-55.38 87.35,-52.56 93.58,-61.14 97.56,-55.38"/>
<text xml:space="preserve" text-anchor="middle" x="218.78" y="-86.55" font-family="Arial" font-size="11.00"> locationContainedInItinerary </text>
<text xml:space="preserve" text-anchor="middle" x="218.78" y="-73.05" font-family="Arial" font-size="11.00"> «only» &#160;</text>
</g>
<!-- Invis&#45;&gt;IndexedLocation -->
</g>
</svg>
