<?xml version="1.0" encoding="UTF-8" standalone="no"?>
<!DOCTYPE svg PUBLIC "-//W3C//DTD SVG 1.1//EN"
 "http://www.w3.org/Graphics/SVG/1.1/DTD/svg11.dtd">
<!-- Generated by graphviz version 14.0.2 (20251019.1705)
 -->
<!-- Pages: 1 -->
<svg width="307pt" height="232pt"
 viewBox="0.00 0.00 307.00 232.00" xmlns="http://www.w3.org/2000/svg" xmlns:xlink="http://www.w3.org/1999/xlink">
<g id="graph0" class="graph" transform="scale(1 1) rotate(0) translate(4 228)">
<polygon fill="white" stroke="none" points="-4,4 -4,-228 302.5,-228 302.5,4 -4,4"/>
<g id="clust2" class="cluster">
<title>cluster_associated</title>
</g>
<!-- IndexedLocation -->
<g id="node1" class="node">
<title>IndexedLocation</title>
<g id="a_node1"><a xlink:href="../classes/itsLocation__IndexedLocation.md" xlink:title="&lt;TABLE&gt;">
<polygon fill="lightgray" stroke="none" points="106.5,-133 106.5,-149.25 297.5,-149.25 297.5,-133 106.5,-133"/>
<text xml:space="preserve" text-anchor="start" x="157.75" y="-136.85" font-family="Arial" font-size="12.00">IndexedLocation</text>
<text xml:space="preserve" text-anchor="start" x="107.5" y="-120.6" font-family="Arial" font-size="12.00">index: xsd::integer «exactly 1, only»</text>
<polygon fill="none" stroke="black" points="105.5,-115.75 105.5,-150.25 298.5,-150.25 298.5,-115.75 105.5,-115.75"/>
</a>
</g>
</g>
<!-- LocationReference -->
<g id="node2" class="node">
<title>LocationReference</title>
<g id="a_node2"><a xlink:href="../_counters/itsLocation__LocationReference.md" xlink:title="&lt;TABLE&gt;">
<polygon fill="lightgray" stroke="none" points="150.38,-197.88 150.38,-214.12 253.62,-214.12 253.62,-197.88 150.38,-197.88"/>
<text xml:space="preserve" text-anchor="start" x="151.38" y="-201.72" font-family="Arial" font-size="12.00">LocationReference</text>
<polygon fill="none" stroke="black" points="149.38,-196.88 149.38,-215.12 254.62,-215.12 254.62,-196.88 149.38,-196.88"/>
</a>
</g>
</g>
<!-- IndexedLocation&#45;&gt;LocationReference -->
<g id="edge1" class="edge">
<title>IndexedLocation&#45;&gt;LocationReference</title>
<path fill="none" stroke="black" d="M202,-150.71C202,-158.47 202,-167.92 202,-176.74"/>
<polygon fill="none" stroke="black" points="198.5,-176.66 202,-186.66 205.5,-176.66 198.5,-176.66"/>
</g>
<!-- Invis -->
<!-- IndexedLocation&#45;&gt;Invis -->
<!-- Location -->
<g id="node4" class="node">
<title>Location</title>
<g id="a_node4"><a xlink:href="../_counters/itsLocation__Location.md" xlink:title="&lt;TABLE&gt;">
<polygon fill="lightgray" stroke="none" points="19.12,-25.88 19.12,-42.12 66.88,-42.12 66.88,-25.88 19.12,-25.88"/>
<text xml:space="preserve" text-anchor="start" x="20.12" y="-29.73" font-family="Arial" font-size="12.00">Location</text>
<polygon fill="none" stroke="black" points="18.12,-24.88 18.12,-43.12 67.88,-43.12 67.88,-24.88 18.12,-24.88"/>
</a>
</g>
</g>
<!-- IndexedLocation&#45;&gt;Location -->
<g id="edge4" class="edge">
<title>IndexedLocation&#45;&gt;Location</title>
<path fill="none" stroke="black" d="M174.3,-115.1C148.04,-99.08 108.41,-74.91 79.56,-57.31"/>
<polygon fill="black" stroke="black" points="81.5,-54.39 71.14,-52.17 77.85,-60.36 81.5,-54.39"/>
<text xml:space="preserve" text-anchor="middle" x="185.67" y="-86.55" font-family="Arial" font-size="11.00"> location </text>
<text xml:space="preserve" text-anchor="middle" x="185.67" y="-73.05" font-family="Arial" font-size="11.00"> «exactly 1, only» &#160;</text>
</g>
<!-- Invis&#45;&gt;Location -->
</g>
</svg>
