<?xml version="1.0" encoding="UTF-8" standalone="no"?>
<!DOCTYPE svg PUBLIC "-//W3C//DTD SVG 1.1//EN"
 "http://www.w3.org/Graphics/SVG/1.1/DTD/svg11.dtd">
<!-- Generated by graphviz version 14.0.2 (20251019.1705)
 -->
<!-- Pages: 1 -->
<svg width="444pt" height="279pt"
 viewBox="0.00 0.00 444.00 279.00" xmlns="http://www.w3.org/2000/svg" xmlns:xlink="http://www.w3.org/1999/xlink">
<g id="graph0" class="graph" transform="scale(1 1) rotate(0) translate(4 275.25)">
<polygon fill="white" stroke="none" points="-4,4 -4,-275.25 440.12,-275.25 440.12,4 -4,4"/>
<g id="clust2" class="cluster">
<title>cluster_associated</title>
</g>
<!-- PointCoordinates -->
<g id="node1" class="node">
<title>PointCoordinates</title>
<g id="a_node1"><a xlink:href="../classes/itsLocation__PointCoordinates.md" xlink:title="&lt;TABLE&gt;">
<polygon fill="lightgray" stroke="none" points="178.88,-181 178.88,-197.25 435.12,-197.25 435.12,-181 178.88,-181"/>
<text xml:space="preserve" text-anchor="start" x="260.5" y="-184.85" font-family="Arial" font-size="12.00">PointCoordinates</text>
<text xml:space="preserve" text-anchor="start" x="179.88" y="-168.6" font-family="Arial" font-size="12.00">elevation: xsd::float «max 1, only»</text>
<text xml:space="preserve" text-anchor="start" x="179.88" y="-152.35" font-family="Arial" font-size="12.00">genProp::hasIdentifier: xsd::string «max 1, only»</text>
<text xml:space="preserve" text-anchor="start" x="179.88" y="-136.1" font-family="Arial" font-size="12.00">latitude: xsd::float «exactly 1, only»</text>
<text xml:space="preserve" text-anchor="start" x="179.88" y="-119.85" font-family="Arial" font-size="12.00">longitude: xsd::float «exactly 1, only»</text>
<polygon fill="none" stroke="black" points="177.88,-115 177.88,-198.25 436.12,-198.25 436.12,-115 177.88,-115"/>
</a>
</g>
</g>
<!-- LocationThing -->
<g id="node2" class="node">
<title>LocationThing</title>
<g id="a_node2"><a xlink:href="../_counters/itsLocation__LocationThing.md" xlink:title="&lt;TABLE&gt;">
<polygon fill="lightgray" stroke="none" points="267.75,-245.12 267.75,-261.38 346.25,-261.38 346.25,-245.12 267.75,-245.12"/>
<text xml:space="preserve" text-anchor="start" x="268.75" y="-248.97" font-family="Arial" font-size="12.00">LocationThing</text>
<polygon fill="none" stroke="black" points="266.75,-244.12 266.75,-262.38 347.25,-262.38 347.25,-244.12 266.75,-244.12"/>
</a>
</g>
</g>
<!-- PointCoordinates&#45;&gt;LocationThing -->
<g id="edge1" class="edge">
<title>PointCoordinates&#45;&gt;LocationThing</title>
<path fill="none" stroke="black" d="M307,-197.98C307,-206.68 307,-215.7 307,-223.83"/>
<polygon fill="none" stroke="black" points="303.5,-223.82 307,-233.82 310.5,-223.82 303.5,-223.82"/>
</g>
<!-- Invis -->
<!-- PointCoordinates&#45;&gt;Invis -->
<!-- PositionConfidenceEllipse -->
<g id="node4" class="node">
<title>PositionConfidenceEllipse</title>
<g id="a_node4"><a xlink:href="../_counters/itsLocation__PositionConfidenceEllipse.md" xlink:title="&lt;TABLE&gt;">
<polygon fill="lightgray" stroke="none" points="17.12,-25.88 17.12,-42.12 160.88,-42.12 160.88,-25.88 17.12,-25.88"/>
<text xml:space="preserve" text-anchor="start" x="18.12" y="-29.73" font-family="Arial" font-size="12.00">PositionConfidenceEllipse</text>
<polygon fill="none" stroke="black" points="16.12,-24.88 16.12,-43.12 161.88,-43.12 161.88,-24.88 16.12,-24.88"/>
</a>
</g>
</g>
<!-- PointCoordinates&#45;&gt;PositionConfidenceEllipse -->
<g id="edge4" class="edge">
<title>PointCoordinates&#45;&gt;PositionConfidenceEllipse</title>
<path fill="none" stroke="black" d="M233.8,-115.12C198.95,-95.84 158.6,-73.51 129.36,-57.33"/>
<polygon fill="black" stroke="black" points="131.28,-54.39 120.83,-52.61 127.89,-60.52 131.28,-54.39"/>
<text xml:space="preserve" text-anchor="middle" x="246.75" y="-86.55" font-family="Arial" font-size="11.00"> positionConfidence </text>
<text xml:space="preserve" text-anchor="middle" x="246.75" y="-73.05" font-family="Arial" font-size="11.00"> «max 1, only» &#160;</text>
</g>
<!-- Invis&#45;&gt;PositionConfidenceEllipse -->
</g>
</svg>
