<?xml version="1.0" encoding="UTF-8" standalone="no"?>
<!DOCTYPE svg PUBLIC "-//W3C//DTD SVG 1.1//EN"
 "http://www.w3.org/Graphics/SVG/1.1/DTD/svg11.dtd">
<!-- Generated by graphviz version 14.0.2 (20251019.1705)
 -->
<!-- Pages: 1 -->
<svg width="318pt" height="305pt"
 viewBox="0.00 0.00 318.00 305.00" xmlns="http://www.w3.org/2000/svg" xmlns:xlink="http://www.w3.org/1999/xlink">
<g id="graph0" class="graph" transform="scale(1 1) rotate(0) translate(4 301)">
<polygon fill="white" stroke="none" points="-4,4 -4,-301 314.2,-301 314.2,4 -4,4"/>
<g id="clust2" class="cluster">
<title>cluster_associated</title>
</g>
<!-- Location -->
<g id="node1" class="node">
<title>Location</title>
<g id="a_node1"><a xlink:href="../classes/itsLocation__Location.md" xlink:title="&lt;TABLE&gt;">
<polygon fill="lightgray" stroke="none" points="133.12,-197.88 133.12,-214.12 180.88,-214.12 180.88,-197.88 133.12,-197.88"/>
<text xml:space="preserve" text-anchor="start" x="134.12" y="-201.72" font-family="Arial" font-size="12.00">Location</text>
<polygon fill="none" stroke="black" points="132.12,-196.88 132.12,-215.12 181.88,-215.12 181.88,-196.88 132.12,-196.88"/>
</a>
</g>
</g>
<!-- LocationReference -->
<g id="node2" class="node">
<title>LocationReference</title>
<g id="a_node2"><a xlink:href="../_counters/itsLocation__LocationReference.md" xlink:title="&lt;TABLE&gt;">
<polygon fill="lightgray" stroke="none" points="105.38,-270.88 105.38,-287.12 208.62,-287.12 208.62,-270.88 105.38,-270.88"/>
<text xml:space="preserve" text-anchor="start" x="106.38" y="-274.73" font-family="Arial" font-size="12.00">LocationReference</text>
<polygon fill="none" stroke="black" points="104.38,-269.88 104.38,-288.12 209.62,-288.12 209.62,-269.88 104.38,-269.88"/>
</a>
</g>
</g>
<!-- Location&#45;&gt;LocationReference -->
<g id="edge1" class="edge">
<title>Location&#45;&gt;LocationReference</title>
<path fill="none" stroke="black" d="M157,-223.71C157,-231.47 157,-240.92 157,-249.74"/>
<polygon fill="none" stroke="black" points="153.5,-249.66 157,-259.66 160.5,-249.66 153.5,-249.66"/>
</g>
<!-- Invis -->
<!-- Location&#45;&gt;Invis -->
<!-- code__Code -->
<g id="node4" class="node">
<title>code__Code</title>
<polygon fill="lightgray" stroke="none" points="33.25,-98.88 33.25,-115.12 96.75,-115.12 96.75,-98.88 33.25,-98.88"/>
<text xml:space="preserve" text-anchor="start" x="34.25" y="-102.72" font-family="Arial" font-size="12.00">code::Code</text>
<polygon fill="none" stroke="black" points="32.25,-97.88 32.25,-116.12 97.75,-116.12 97.75,-97.88 32.25,-97.88"/>
</g>
<!-- Location&#45;&gt;code__Code -->
<g id="edge6" class="edge">
<title>Location&#45;&gt;code__Code</title>
<path fill="none" stroke="black" d="M130.09,-189.88C128.72,-189.22 127.35,-188.59 126,-188 103.23,-177.98 88.76,-189.25 73,-170 65.4,-160.71 62.87,-147.88 62.45,-136.3"/>
<polygon fill="black" stroke="black" points="65.95,-136.45 62.63,-126.39 58.95,-136.33 65.95,-136.45"/>
<text xml:space="preserve" text-anchor="middle" x="140.5" y="-159.55" font-family="Arial" font-size="11.00"> externalLocationReference </text>
<text xml:space="preserve" text-anchor="middle" x="140.5" y="-146.05" font-family="Arial" font-size="11.00"> «only» &#160;</text>
</g>
<!-- PointCoordinates -->
<g id="node5" class="node">
<title>PointCoordinates</title>
<g id="a_node5"><a xlink:href="../_counters/itsLocation__PointCoordinates.md" xlink:title="&lt;TABLE&gt;">
<polygon fill="lightgray" stroke="none" points="17.5,-25.88 17.5,-42.12 112.5,-42.12 112.5,-25.88 17.5,-25.88"/>
<text xml:space="preserve" text-anchor="start" x="18.5" y="-29.73" font-family="Arial" font-size="12.00">PointCoordinates</text>
<polygon fill="none" stroke="black" points="16.5,-24.88 16.5,-43.12 113.5,-43.12 113.5,-24.88 16.5,-24.88"/>
</a>
</g>
</g>
<!-- Location&#45;&gt;PointCoordinates -->
<g id="edge5" class="edge">
<title>Location&#45;&gt;PointCoordinates</title>
<path fill="none" stroke="black" d="M183.82,-193.25C193.22,-187.66 202.75,-179.98 208,-170 213.59,-159.38 213.35,-153.74 208,-143 188.46,-103.75 147.1,-74.99 113.86,-57.06"/>
<polygon fill="black" stroke="black" points="115.67,-54.05 105.19,-52.54 112.44,-60.26 115.67,-54.05"/>
<text xml:space="preserve" text-anchor="middle" x="253.58" y="-110.05" font-family="Arial" font-size="11.00"> coordinatesForDisplay </text>
<text xml:space="preserve" text-anchor="middle" x="253.58" y="-96.55" font-family="Arial" font-size="11.00"> «max 1, only» &#160;</text>
</g>
<!-- Invis&#45;&gt;code__Code -->
<!-- code__Code&#45;&gt;PointCoordinates -->
</g>
</svg>
