<?xml version="1.0" encoding="UTF-8" standalone="no"?>
<!DOCTYPE svg PUBLIC "-//W3C//DTD SVG 1.1//EN"
 "http://www.w3.org/Graphics/SVG/1.1/DTD/svg11.dtd">
<!-- Generated by graphviz version 14.0.2 (20251019.1705)
 -->
<!-- Pages: 1 -->
<svg width="216pt" height="232pt"
 viewBox="0.00 0.00 216.00 232.00" xmlns="http://www.w3.org/2000/svg" xmlns:xlink="http://www.w3.org/1999/xlink">
<g id="graph0" class="graph" transform="scale(1 1) rotate(0) translate(4 228)">
<polygon fill="white" stroke="none" points="-4,4 -4,-228 212.49,-228 212.49,4 -4,4"/>
<g id="clust2" class="cluster">
<title>cluster_associated</title>
</g>
<!-- PointDestination -->
<g id="node1" class="node">
<title>PointDestination</title>
<g id="a_node1"><a xlink:href="../classes/itsLocation__PointDestination.md" xlink:title="&lt;TABLE&gt;">
<polygon fill="lightgray" stroke="none" points="114.75,-124.88 114.75,-141.12 205.25,-141.12 205.25,-124.88 114.75,-124.88"/>
<text xml:space="preserve" text-anchor="start" x="115.75" y="-128.72" font-family="Arial" font-size="12.00">PointDestination</text>
<polygon fill="none" stroke="black" points="113.75,-123.88 113.75,-142.12 206.25,-142.12 206.25,-123.88 113.75,-123.88"/>
</a>
</g>
</g>
<!-- Destination -->
<g id="node2" class="node">
<title>Destination</title>
<g id="a_node2"><a xlink:href="../_counters/itsLocation__Destination.md" xlink:title="&lt;TABLE&gt;">
<polygon fill="lightgray" stroke="none" points="128.62,-197.88 128.62,-214.12 191.38,-214.12 191.38,-197.88 128.62,-197.88"/>
<text xml:space="preserve" text-anchor="start" x="129.62" y="-201.72" font-family="Arial" font-size="12.00">Destination</text>
<polygon fill="none" stroke="black" points="127.62,-196.88 127.62,-215.12 192.38,-215.12 192.38,-196.88 127.62,-196.88"/>
</a>
</g>
</g>
<!-- PointDestination&#45;&gt;Destination -->
<g id="edge1" class="edge">
<title>PointDestination&#45;&gt;Destination</title>
<path fill="none" stroke="black" d="M160,-150.71C160,-158.47 160,-167.92 160,-176.74"/>
<polygon fill="none" stroke="black" points="156.5,-176.66 160,-186.66 163.5,-176.66 156.5,-176.66"/>
</g>
<!-- Invis -->
<!-- PointDestination&#45;&gt;Invis -->
<!-- PointLocation -->
<g id="node4" class="node">
<title>PointLocation</title>
<g id="a_node4"><a xlink:href="../_counters/itsLocation__PointLocation.md" xlink:title="&lt;TABLE&gt;">
<polygon fill="lightgray" stroke="none" points="17.25,-25.88 17.25,-42.12 92.75,-42.12 92.75,-25.88 17.25,-25.88"/>
<text xml:space="preserve" text-anchor="start" x="18.25" y="-29.73" font-family="Arial" font-size="12.00">PointLocation</text>
<polygon fill="none" stroke="black" points="16.25,-24.88 16.25,-43.12 93.75,-43.12 93.75,-24.88 16.25,-24.88"/>
</a>
</g>
</g>
<!-- PointDestination&#45;&gt;PointLocation -->
<g id="edge4" class="edge">
<title>PointDestination&#45;&gt;PointLocation</title>
<path fill="none" stroke="black" d="M141.71,-115.1C125.07,-99.73 100.32,-76.86 81.51,-59.49"/>
<polygon fill="black" stroke="black" points="83.91,-56.94 74.19,-52.73 79.16,-62.09 83.91,-56.94"/>
<text xml:space="preserve" text-anchor="middle" x="164.24" y="-86.55" font-family="Arial" font-size="11.00"> pointLocation </text>
<text xml:space="preserve" text-anchor="middle" x="164.24" y="-73.05" font-family="Arial" font-size="11.00"> «exactly 1, only» &#160;</text>
</g>
<!-- Invis&#45;&gt;PointLocation -->
</g>
</svg>
