<?xml version="1.0" encoding="UTF-8" standalone="no"?>
<!DOCTYPE svg PUBLIC "-//W3C//DTD SVG 1.1//EN"
 "http://www.w3.org/Graphics/SVG/1.1/DTD/svg11.dtd">
<!-- Generated by graphviz version 14.0.2 (20251019.1705)
 -->
<!-- Pages: 1 -->
<svg width="210pt" height="132pt"
 viewBox="0.00 0.00 210.00 132.00" xmlns="http://www.w3.org/2000/svg" xmlns:xlink="http://www.w3.org/1999/xlink">
<g id="graph0" class="graph" transform="scale(1 1) rotate(0) translate(4 128)">
<polygon fill="white" stroke="none" points="-4,4 -4,-128 206,-128 206,4 -4,4"/>
<g id="clust2" class="cluster">
<title>cluster_associated</title>
</g>
<!-- LocationThing -->
<g id="node1" class="node">
<title>LocationThing</title>
<g id="a_node1"><a xlink:href="../classes/itsLocation__LocationThing.md" xlink:title="&lt;TABLE&gt;">
<polygon fill="lightgray" stroke="none" points="34.75,-25.88 34.75,-42.12 113.25,-42.12 113.25,-25.88 34.75,-25.88"/>
<text xml:space="preserve" text-anchor="start" x="35.75" y="-29.73" font-family="Arial" font-size="12.00">LocationThing</text>
<polygon fill="none" stroke="black" points="33.75,-24.88 33.75,-43.12 114.25,-43.12 114.25,-24.88 33.75,-24.88"/>
</a>
</g>
</g>
<!-- transportnetwork__ITSThing -->
<g id="node2" class="node">
<title>transportnetwork__ITSThing</title>
<polygon fill="lightgray" stroke="none" points="1,-97.88 1,-114.12 147,-114.12 147,-97.88 1,-97.88"/>
<text xml:space="preserve" text-anchor="start" x="2" y="-101.72" font-family="Arial" font-size="12.00">transportnetwork::ITSThing</text>
<polygon fill="none" stroke="black" points="0,-96.88 0,-115.12 148,-115.12 148,-96.88 0,-96.88"/>
</g>
<!-- LocationThing&#45;&gt;transportnetwork__ITSThing -->
<g id="edge1" class="edge">
<title>LocationThing&#45;&gt;transportnetwork__ITSThing</title>
<path fill="none" stroke="black" d="M74,-51.79C74,-59.25 74,-68.24 74,-76.69"/>
<polygon fill="none" stroke="black" points="70.5,-76.54 74,-86.54 77.5,-76.54 70.5,-76.54"/>
</g>
<!-- Invis -->
</g>
</svg>
