<?xml version="1.0" encoding="UTF-8" standalone="no"?>
<!DOCTYPE svg PUBLIC "-//W3C//DTD SVG 1.1//EN"
 "http://www.w3.org/Graphics/SVG/1.1/DTD/svg11.dtd">
<!-- Generated by graphviz version 14.0.2 (20251019.1705)
 -->
<!-- Pages: 1 -->
<svg width="645pt" height="320pt"
 viewBox="0.00 0.00 645.00 320.00" xmlns="http://www.w3.org/2000/svg" xmlns:xlink="http://www.w3.org/1999/xlink">
<g id="graph0" class="graph" transform="scale(1 1) rotate(0) translate(4 315.75)">
<polygon fill="white" stroke="none" points="-4,4 -4,-315.75 641.24,-315.75 641.24,4 -4,4"/>
<g id="clust2" class="cluster">
<title>cluster_associated</title>
</g>
<!-- SupplementaryPositionalDescription -->
<g id="node1" class="node">
<title>SupplementaryPositionalDescription</title>
<g id="a_node1"><a xlink:href="../classes/itsLocation__SupplementaryPositionalDescription.md" xlink:title="&lt;TABLE&gt;">
<polygon fill="lightgray" stroke="none" points="123.38,-221.5 123.38,-237.75 400.62,-237.75 400.62,-221.5 123.38,-221.5"/>
<text xml:space="preserve" text-anchor="start" x="164.5" y="-225.35" font-family="Arial" font-size="12.00">SupplementaryPositionalDescription</text>
<text xml:space="preserve" text-anchor="start" x="124.38" y="-209.1" font-family="Arial" font-size="12.00">locationDescription: xsd::string «max 1, only»</text>
<text xml:space="preserve" text-anchor="start" x="124.38" y="-192.85" font-family="Arial" font-size="12.00">sequentialRampNumber: xsd::integer «max 1, only»</text>
<polygon fill="none" stroke="black" points="122.38,-188 122.38,-238.75 401.62,-238.75 401.62,-188 122.38,-188"/>
</a>
</g>
</g>
<!-- LocationThing -->
<g id="node2" class="node">
<title>LocationThing</title>
<g id="a_node2"><a xlink:href="../_counters/itsLocation__LocationThing.md" xlink:title="&lt;TABLE&gt;">
<polygon fill="lightgray" stroke="none" points="222.75,-285.62 222.75,-301.88 301.25,-301.88 301.25,-285.62 222.75,-285.62"/>
<text xml:space="preserve" text-anchor="start" x="223.75" y="-289.48" font-family="Arial" font-size="12.00">LocationThing</text>
<polygon fill="none" stroke="black" points="221.75,-284.62 221.75,-302.88 302.25,-302.88 302.25,-284.62 221.75,-284.62"/>
</a>
</g>
</g>
<!-- SupplementaryPositionalDescription&#45;&gt;LocationThing -->
<g id="edge1" class="edge">
<title>SupplementaryPositionalDescription&#45;&gt;LocationThing</title>
<path fill="none" stroke="black" d="M262,-238.71C262,-246.97 262,-256.27 262,-264.79"/>
<polygon fill="none" stroke="black" points="258.5,-264.62 262,-274.62 265.5,-264.62 258.5,-264.62"/>
</g>
<!-- Invis -->
<!-- SupplementaryPositionalDescription&#45;&gt;Invis -->
<!-- cityunits__Length -->
<g id="node4" class="node">
<title>cityunits__Length</title>
<polygon fill="lightgray" stroke="none" points="16.88,-98.88 16.88,-115.12 105.12,-115.12 105.12,-98.88 16.88,-98.88"/>
<text xml:space="preserve" text-anchor="start" x="17.88" y="-102.72" font-family="Arial" font-size="12.00">cityunits::Length</text>
<polygon fill="none" stroke="black" points="15.88,-97.88 15.88,-116.12 106.12,-116.12 106.12,-97.88 15.88,-97.88"/>
</g>
<!-- SupplementaryPositionalDescription&#45;&gt;cityunits__Length -->
<g id="edge8" class="edge">
<title>SupplementaryPositionalDescription&#45;&gt;cityunits__Length</title>
<path fill="none" stroke="black" d="M127.01,-188.06C82.57,-179.74 43.9,-172 42.25,-170 34.05,-160.07 36.94,-146.63 42.63,-134.8"/>
<polygon fill="black" stroke="black" points="45.58,-136.7 47.41,-126.26 39.47,-133.28 45.58,-136.7"/>
<text xml:space="preserve" text-anchor="middle" x="80.12" y="-159.55" font-family="Arial" font-size="11.00"> lengthAffected </text>
<text xml:space="preserve" text-anchor="middle" x="80.12" y="-146.05" font-family="Arial" font-size="11.00"> «max 1, only» &#160;</text>
</g>
<!-- SupplementaryPositionalDescription&#45;&gt;cityunits__Length -->
<g id="edge9" class="edge">
<title>SupplementaryPositionalDescription&#45;&gt;cityunits__Length</title>
<path fill="none" stroke="black" d="M174.66,-188.1C162.85,-183.04 151.28,-177.05 141,-170 128,-161.09 129.98,-153.25 118,-143 113.03,-138.74 107.48,-134.66 101.85,-130.89"/>
<polygon fill="black" stroke="black" points="103.98,-128.1 93.67,-125.67 100.21,-134 103.98,-128.1"/>
<text xml:space="preserve" text-anchor="middle" x="184.5" y="-159.55" font-family="Arial" font-size="11.00"> locationPrecision </text>
<text xml:space="preserve" text-anchor="middle" x="184.5" y="-146.05" font-family="Arial" font-size="11.00"> «max 1, only» &#160;</text>
</g>
<!-- code__Code -->
<g id="node5" class="node">
<title>code__Code</title>
<polygon fill="lightgray" stroke="none" points="41.25,-25.88 41.25,-42.12 104.75,-42.12 104.75,-25.88 41.25,-25.88"/>
<text xml:space="preserve" text-anchor="start" x="42.25" y="-29.73" font-family="Arial" font-size="12.00">code::Code</text>
<polygon fill="none" stroke="black" points="40.25,-24.88 40.25,-43.12 105.75,-43.12 105.75,-24.88 40.25,-24.88"/>
</g>
<!-- SupplementaryPositionalDescription&#45;&gt;code__Code -->
<g id="edge5" class="edge">
<title>SupplementaryPositionalDescription&#45;&gt;code__Code</title>
<path fill="none" stroke="black" d="M255.8,-188.19C250.73,-173.1 242.04,-154.43 228,-143 203.09,-122.72 185.67,-141.32 158,-125 143.31,-116.34 114.16,-83.82 94.13,-60.36"/>
<polygon fill="black" stroke="black" points="97.06,-58.4 87.92,-53.03 91.72,-62.92 97.06,-58.4"/>
<text xml:space="preserve" text-anchor="middle" x="201.5" y="-110.05" font-family="Arial" font-size="11.00"> directionPurpose </text>
<text xml:space="preserve" text-anchor="middle" x="201.5" y="-96.55" font-family="Arial" font-size="11.00"> «max 1, only» &#160;</text>
</g>
<!-- SupplementaryPositionalDescription&#45;&gt;code__Code -->
<g id="edge6" class="edge">
<title>SupplementaryPositionalDescription&#45;&gt;code__Code</title>
<path fill="none" stroke="black" d="M265.72,-188.01C268.44,-160.68 268.31,-116.58 245,-89 213.53,-51.77 156.68,-39.85 116.99,-36.23"/>
<polygon fill="black" stroke="black" points="117.27,-32.74 107.03,-35.48 116.74,-39.72 117.27,-32.74"/>
<text xml:space="preserve" text-anchor="middle" x="316.66" y="-110.05" font-family="Arial" font-size="11.00"> geographicDescriptor </text>
<text xml:space="preserve" text-anchor="middle" x="316.66" y="-96.55" font-family="Arial" font-size="11.00"> «max 1, only» &#160;</text>
</g>
<!-- SupplementaryPositionalDescription&#45;&gt;code__Code -->
<g id="edge7" class="edge">
<title>SupplementaryPositionalDescription&#45;&gt;code__Code</title>
<path fill="none" stroke="black" d="M310.74,-188.14C353.55,-163.68 404.74,-124.53 375,-89 342.63,-50.33 192.9,-39.32 117.15,-36.21"/>
<polygon fill="black" stroke="black" points="117.29,-32.71 107.17,-35.83 117.03,-39.71 117.29,-32.71"/>
<text xml:space="preserve" text-anchor="middle" x="443.1" y="-110.05" font-family="Arial" font-size="11.00"> infrastructureDescriptor </text>
<text xml:space="preserve" text-anchor="middle" x="443.1" y="-96.55" font-family="Arial" font-size="11.00"> «max 1, only» &#160;</text>
</g>
<!-- SupplementaryPositionalDescription&#45;&gt;code__Code -->
<g id="edge10" class="edge">
<title>SupplementaryPositionalDescription&#45;&gt;code__Code</title>
<path fill="none" stroke="black" d="M401.49,-188.24C477.58,-169.08 548.42,-137.35 506,-89 480.59,-60.04 222.19,-43.01 117.09,-37.23"/>
<polygon fill="black" stroke="black" points="117.33,-33.74 107.16,-36.7 116.96,-40.73 117.33,-33.74"/>
<text xml:space="preserve" text-anchor="middle" x="577.99" y="-110.05" font-family="Arial" font-size="11.00"> positionOnCarriageway </text>
<text xml:space="preserve" text-anchor="middle" x="577.99" y="-96.55" font-family="Arial" font-size="11.00"> «max 1, only» &#160;</text>
</g>
<!-- Invis&#45;&gt;cityunits__Length -->
<!-- cityunits__Length&#45;&gt;code__Code -->
</g>
</svg>
