<?xml version="1.0" encoding="UTF-8" standalone="no"?>
<!DOCTYPE svg PUBLIC "-//W3C//DTD SVG 1.1//EN"
 "http://www.w3.org/Graphics/SVG/1.1/DTD/svg11.dtd">
<!-- Generated by graphviz version 14.0.2 (20251019.1705)
 -->
<!-- Pages: 1 -->
<svg width="286pt" height="232pt"
 viewBox="0.00 0.00 286.00 232.00" xmlns="http://www.w3.org/2000/svg" xmlns:xlink="http://www.w3.org/1999/xlink">
<g id="graph0" class="graph" transform="scale(1 1) rotate(0) translate(4 228)">
<polygon fill="white" stroke="none" points="-4,4 -4,-228 282.12,-228 282.12,4 -4,4"/>
<g id="clust2" class="cluster">
<title>cluster_associated</title>
</g>
<!-- CircleLocationReference -->
<g id="node1" class="node">
<title>CircleLocationReference</title>
<g id="a_node1"><a xlink:href="../classes/OpenLR__CircleLocationReference.md" xlink:title="&lt;TABLE&gt;">
<polygon fill="lightgray" stroke="none" points="110.88,-133 110.88,-149.25 277.12,-149.25 277.12,-133 110.88,-133"/>
<text xml:space="preserve" text-anchor="start" x="127.62" y="-136.85" font-family="Arial" font-size="12.00">CircleLocationReference</text>
<text xml:space="preserve" text-anchor="start" x="111.88" y="-120.6" font-family="Arial" font-size="12.00">radius: xsd::integer «exactly 1»</text>
<polygon fill="none" stroke="black" points="109.88,-115.75 109.88,-150.25 278.12,-150.25 278.12,-115.75 109.88,-115.75"/>
</a>
</g>
</g>
<!-- LocationReference -->
<g id="node2" class="node">
<title>LocationReference</title>
<g id="a_node2"><a xlink:href="../_counters/OpenLR__LocationReference.md" xlink:title="&lt;TABLE&gt;">
<polygon fill="lightgray" stroke="none" points="142.38,-197.88 142.38,-214.12 245.62,-214.12 245.62,-197.88 142.38,-197.88"/>
<text xml:space="preserve" text-anchor="start" x="143.38" y="-201.72" font-family="Arial" font-size="12.00">LocationReference</text>
<polygon fill="none" stroke="black" points="141.38,-196.88 141.38,-215.12 246.62,-215.12 246.62,-196.88 141.38,-196.88"/>
</a>
</g>
</g>
<!-- CircleLocationReference&#45;&gt;LocationReference -->
<g id="edge1" class="edge">
<title>CircleLocationReference&#45;&gt;LocationReference</title>
<path fill="none" stroke="black" d="M194,-150.71C194,-158.47 194,-167.92 194,-176.74"/>
<polygon fill="none" stroke="black" points="190.5,-176.66 194,-186.66 197.5,-176.66 190.5,-176.66"/>
</g>
<!-- Invis -->
<!-- CircleLocationReference&#45;&gt;Invis -->
<!-- Coordinates -->
<g id="node4" class="node">
<title>Coordinates</title>
<g id="a_node4"><a xlink:href="../_counters/OpenLR__Coordinates.md" xlink:title="&lt;TABLE&gt;">
<polygon fill="lightgray" stroke="none" points="17.38,-25.88 17.38,-42.12 84.62,-42.12 84.62,-25.88 17.38,-25.88"/>
<text xml:space="preserve" text-anchor="start" x="18.38" y="-29.73" font-family="Arial" font-size="12.00">Coordinates</text>
<polygon fill="none" stroke="black" points="16.38,-24.88 16.38,-43.12 85.62,-43.12 85.62,-24.88 16.38,-24.88"/>
</a>
</g>
</g>
<!-- CircleLocationReference&#45;&gt;Coordinates -->
<g id="edge4" class="edge">
<title>CircleLocationReference&#45;&gt;Coordinates</title>
<path fill="none" stroke="black" d="M169.09,-115.1C145.82,-99.32 110.88,-75.62 85.04,-58.09"/>
<polygon fill="black" stroke="black" points="87.12,-55.27 76.88,-52.55 83.19,-61.06 87.12,-55.27"/>
<text xml:space="preserve" text-anchor="middle" x="171.01" y="-86.55" font-family="Arial" font-size="11.00"> hasCenter </text>
<text xml:space="preserve" text-anchor="middle" x="171.01" y="-73.05" font-family="Arial" font-size="11.00"> «exactly 1» &#160;</text>
</g>
<!-- Invis&#45;&gt;Coordinates -->
</g>
</svg>
