<?xml version="1.0" encoding="UTF-8" standalone="no"?>
<!DOCTYPE svg PUBLIC "-//W3C//DTD SVG 1.1//EN"
 "http://www.w3.org/Graphics/SVG/1.1/DTD/svg11.dtd">
<!-- Generated by graphviz version 14.0.2 (20251019.1705)
 -->
<!-- Pages: 1 -->
<svg width="262pt" height="132pt"
 viewBox="0.00 0.00 262.00 132.00" xmlns="http://www.w3.org/2000/svg" xmlns:xlink="http://www.w3.org/1999/xlink">
<g id="graph0" class="graph" transform="scale(1 1) rotate(0) translate(4 128)">
<polygon fill="white" stroke="none" points="-4,4 -4,-128 258.38,-128 258.38,4 -4,4"/>
<g id="clust2" class="cluster">
<title>cluster_associated</title>
</g>
<!-- ClosedLineLocationReference -->
<g id="node1" class="node">
<title>ClosedLineLocationReference</title>
<g id="a_node1"><a xlink:href="../classes/OpenLR__ClosedLineLocationReference.md" xlink:title="&lt;TABLE&gt;">
<polygon fill="lightgray" stroke="none" points="1,-25.88 1,-42.12 165.75,-42.12 165.75,-25.88 1,-25.88"/>
<text xml:space="preserve" text-anchor="start" x="2" y="-29.73" font-family="Arial" font-size="12.00">ClosedLineLocationReference</text>
<polygon fill="none" stroke="black" points="0,-24.88 0,-43.12 166.75,-43.12 166.75,-24.88 0,-24.88"/>
</a>
</g>
</g>
<!-- LineLocationReference -->
<g id="node2" class="node">
<title>LineLocationReference</title>
<g id="a_node2"><a xlink:href="../_counters/OpenLR__LineLocationReference.md" xlink:title="&lt;TABLE&gt;">
<polygon fill="lightgray" stroke="none" points="20.12,-97.88 20.12,-114.12 146.62,-114.12 146.62,-97.88 20.12,-97.88"/>
<text xml:space="preserve" text-anchor="start" x="21.12" y="-101.72" font-family="Arial" font-size="12.00">LineLocationReference</text>
<polygon fill="none" stroke="black" points="19.12,-96.88 19.12,-115.12 147.62,-115.12 147.62,-96.88 19.12,-96.88"/>
</a>
</g>
</g>
<!-- ClosedLineLocationReference&#45;&gt;LineLocationReference -->
<g id="edge1" class="edge">
<title>ClosedLineLocationReference&#45;&gt;LineLocationReference</title>
<path fill="none" stroke="black" d="M83.38,-51.79C83.38,-59.25 83.38,-68.24 83.38,-76.69"/>
<polygon fill="none" stroke="black" points="79.88,-76.54 83.38,-86.54 86.88,-76.54 79.88,-76.54"/>
</g>
<!-- Invis -->
</g>
</svg>
