<?xml version="1.0" encoding="UTF-8" standalone="no"?>
<!DOCTYPE svg PUBLIC "-//W3C//DTD SVG 1.1//EN"
 "http://www.w3.org/Graphics/SVG/1.1/DTD/svg11.dtd">
<!-- Generated by graphviz version 14.0.2 (20251019.1705)
 -->
<!-- Pages: 1 -->
<svg width="378pt" height="232pt"
 viewBox="0.00 0.00 378.00 232.00" xmlns="http://www.w3.org/2000/svg" xmlns:xlink="http://www.w3.org/1999/xlink">
<g id="graph0" class="graph" transform="scale(1 1) rotate(0) translate(4 228)">
<polygon fill="white" stroke="none" points="-4,4 -4,-228 373.88,-228 373.88,4 -4,4"/>
<g id="clust2" class="cluster">
<title>cluster_associated</title>
</g>
<!-- PathAttributes -->
<g id="node1" class="node">
<title>PathAttributes</title>
<g id="a_node1"><a xlink:href="../classes/OpenLR__PathAttributes.md" xlink:title="&lt;TABLE&gt;">
<polygon fill="lightgray" stroke="none" points="153.12,-133 153.12,-149.25 368.88,-149.25 368.88,-133 153.12,-133"/>
<text xml:space="preserve" text-anchor="start" x="223.5" y="-136.85" font-family="Arial" font-size="12.00">PathAttributes</text>
<text xml:space="preserve" text-anchor="start" x="154.12" y="-120.6" font-family="Arial" font-size="12.00">distanceToNext: xsd::integer «exactly 1»</text>
<polygon fill="none" stroke="black" points="152.12,-115.75 152.12,-150.25 369.88,-150.25 369.88,-115.75 152.12,-115.75"/>
</a>
</g>
</g>
<!-- OpenLRThing -->
<g id="node2" class="node">
<title>OpenLRThing</title>
<g id="a_node2"><a xlink:href="../_counters/OpenLR__OpenLRThing.md" xlink:title="&lt;TABLE&gt;">
<polygon fill="lightgray" stroke="none" points="222.5,-197.88 222.5,-214.12 299.5,-214.12 299.5,-197.88 222.5,-197.88"/>
<text xml:space="preserve" text-anchor="start" x="223.5" y="-201.72" font-family="Arial" font-size="12.00">OpenLRThing</text>
<polygon fill="none" stroke="black" points="221.5,-196.88 221.5,-215.12 300.5,-215.12 300.5,-196.88 221.5,-196.88"/>
</a>
</g>
</g>
<!-- PathAttributes&#45;&gt;OpenLRThing -->
<g id="edge1" class="edge">
<title>PathAttributes&#45;&gt;OpenLRThing</title>
<path fill="none" stroke="black" d="M261,-150.71C261,-158.47 261,-167.92 261,-176.74"/>
<polygon fill="none" stroke="black" points="257.5,-176.66 261,-186.66 264.5,-176.66 257.5,-176.66"/>
</g>
<!-- Invis -->
<!-- PathAttributes&#45;&gt;Invis -->
<!-- FunctionalRoadClass -->
<g id="node4" class="node">
<title>FunctionalRoadClass</title>
<g id="a_node4"><a xlink:href="../_counters/OpenLR__FunctionalRoadClass.md" xlink:title="&lt;TABLE&gt;">
<polygon fill="lightgray" stroke="none" points="16.88,-25.88 16.88,-42.12 135.12,-42.12 135.12,-25.88 16.88,-25.88"/>
<text xml:space="preserve" text-anchor="start" x="17.88" y="-29.73" font-family="Arial" font-size="12.00">FunctionalRoadClass</text>
<polygon fill="none" stroke="black" points="15.88,-24.88 15.88,-43.12 136.12,-43.12 136.12,-24.88 15.88,-24.88"/>
</a>
</g>
</g>
<!-- PathAttributes&#45;&gt;FunctionalRoadClass -->
<g id="edge4" class="edge">
<title>PathAttributes&#45;&gt;FunctionalRoadClass</title>
<path fill="none" stroke="black" d="M228.78,-115.1C198.1,-99.02 151.75,-74.72 118.15,-57.1"/>
<polygon fill="black" stroke="black" points="119.99,-54.11 109.51,-52.57 116.74,-60.31 119.99,-54.11"/>
<text xml:space="preserve" text-anchor="middle" x="247.89" y="-86.55" font-family="Arial" font-size="11.00"> hasLowestFRCToNext </text>
<text xml:space="preserve" text-anchor="middle" x="247.89" y="-73.05" font-family="Arial" font-size="11.00"> «exactly 1» &#160;</text>
</g>
<!-- Invis&#45;&gt;FunctionalRoadClass -->
</g>
</svg>
