<?xml version="1.0" encoding="UTF-8" standalone="no"?>
<!DOCTYPE svg PUBLIC "-//W3C//DTD SVG 1.1//EN"
 "http://www.w3.org/Graphics/SVG/1.1/DTD/svg11.dtd">
<!-- Generated by graphviz version 14.0.2 (20251019.1705)
 -->
<!-- Pages: 1 -->
<svg width="270pt" height="132pt"
 viewBox="0.00 0.00 270.00 132.00" xmlns="http://www.w3.org/2000/svg" xmlns:xlink="http://www.w3.org/1999/xlink">
<g id="graph0" class="graph" transform="scale(1 1) rotate(0) translate(4 128)">
<polygon fill="white" stroke="none" points="-4,4 -4,-128 266.12,-128 266.12,4 -4,4"/>
<g id="clust2" class="cluster">
<title>cluster_associated</title>
</g>
<!-- LocationReference -->
<g id="node1" class="node">
<title>LocationReference</title>
<g id="a_node1"><a xlink:href="../classes/OpenLR__LocationReference.md" xlink:title="&lt;TABLE&gt;">
<polygon fill="lightgray" stroke="none" points="1,-34 1,-50.25 173.25,-50.25 173.25,-34 1,-34"/>
<text xml:space="preserve" text-anchor="start" x="36.5" y="-37.85" font-family="Arial" font-size="12.00">LocationReference</text>
<text xml:space="preserve" text-anchor="start" x="2" y="-21.6" font-family="Arial" font-size="12.00">version: xsd::integer «exactly 1»</text>
<polygon fill="none" stroke="black" points="0,-16.75 0,-51.25 174.25,-51.25 174.25,-16.75 0,-16.75"/>
</a>
</g>
</g>
<!-- OpenLRThing -->
<g id="node2" class="node">
<title>OpenLRThing</title>
<g id="a_node2"><a xlink:href="../_counters/OpenLR__OpenLRThing.md" xlink:title="&lt;TABLE&gt;">
<polygon fill="lightgray" stroke="none" points="48.62,-97.88 48.62,-114.12 125.62,-114.12 125.62,-97.88 48.62,-97.88"/>
<text xml:space="preserve" text-anchor="start" x="49.62" y="-101.72" font-family="Arial" font-size="12.00">OpenLRThing</text>
<polygon fill="none" stroke="black" points="47.62,-96.88 47.62,-115.12 126.62,-115.12 126.62,-96.88 47.62,-96.88"/>
</a>
</g>
</g>
<!-- LocationReference&#45;&gt;OpenLRThing -->
<g id="edge1" class="edge">
<title>LocationReference&#45;&gt;OpenLRThing</title>
<path fill="none" stroke="black" d="M87.12,-51.79C87.12,-59.25 87.12,-68.24 87.12,-76.69"/>
<polygon fill="none" stroke="black" points="83.63,-76.54 87.13,-86.54 90.63,-76.54 83.63,-76.54"/>
</g>
<!-- Invis -->
</g>
</svg>
