<?xml version="1.0" encoding="UTF-8" standalone="no"?>
<!DOCTYPE svg PUBLIC "-//W3C//DTD SVG 1.1//EN"
 "http://www.w3.org/Graphics/SVG/1.1/DTD/svg11.dtd">
<!-- Generated by graphviz version 14.0.2 (20251019.1705)
 -->
<!-- Pages: 1 -->
<svg width="267pt" height="232pt"
 viewBox="0.00 0.00 267.00 232.00" xmlns="http://www.w3.org/2000/svg" xmlns:xlink="http://www.w3.org/1999/xlink">
<g id="graph0" class="graph" transform="scale(1 1) rotate(0) translate(4 228)">
<polygon fill="white" stroke="none" points="-4,4 -4,-228 262.75,-228 262.75,4 -4,4"/>
<g id="clust2" class="cluster">
<title>cluster_associated</title>
</g>
<!-- PolygonLocationReference -->
<g id="node1" class="node">
<title>PolygonLocationReference</title>
<g id="a_node1"><a xlink:href="../classes/OpenLR__PolygonLocationReference.md" xlink:title="&lt;TABLE&gt;">
<polygon fill="lightgray" stroke="none" points="110.25,-124.88 110.25,-141.12 257.75,-141.12 257.75,-124.88 110.25,-124.88"/>
<text xml:space="preserve" text-anchor="start" x="111.25" y="-128.72" font-family="Arial" font-size="12.00">PolygonLocationReference</text>
<polygon fill="none" stroke="black" points="109.25,-123.88 109.25,-142.12 258.75,-142.12 258.75,-123.88 109.25,-123.88"/>
</a>
</g>
</g>
<!-- LocationReference -->
<g id="node2" class="node">
<title>LocationReference</title>
<g id="a_node2"><a xlink:href="../_counters/OpenLR__LocationReference.md" xlink:title="&lt;TABLE&gt;">
<polygon fill="lightgray" stroke="none" points="132.38,-197.88 132.38,-214.12 235.62,-214.12 235.62,-197.88 132.38,-197.88"/>
<text xml:space="preserve" text-anchor="start" x="133.38" y="-201.72" font-family="Arial" font-size="12.00">LocationReference</text>
<polygon fill="none" stroke="black" points="131.38,-196.88 131.38,-215.12 236.62,-215.12 236.62,-196.88 131.38,-196.88"/>
</a>
</g>
</g>
<!-- PolygonLocationReference&#45;&gt;LocationReference -->
<g id="edge1" class="edge">
<title>PolygonLocationReference&#45;&gt;LocationReference</title>
<path fill="none" stroke="black" d="M184,-150.71C184,-158.47 184,-167.92 184,-176.74"/>
<polygon fill="none" stroke="black" points="180.5,-176.66 184,-186.66 187.5,-176.66 180.5,-176.66"/>
</g>
<!-- Invis -->
<!-- PolygonLocationReference&#45;&gt;Invis -->
<!-- Coordinates -->
<g id="node4" class="node">
<title>Coordinates</title>
<g id="a_node4"><a xlink:href="../_counters/OpenLR__Coordinates.md" xlink:title="&lt;TABLE&gt;">
<polygon fill="lightgray" stroke="none" points="17.38,-25.88 17.38,-42.12 84.62,-42.12 84.62,-25.88 17.38,-25.88"/>
<text xml:space="preserve" text-anchor="start" x="18.38" y="-29.73" font-family="Arial" font-size="12.00">Coordinates</text>
<polygon fill="none" stroke="black" points="16.38,-24.88 16.38,-43.12 85.62,-43.12 85.62,-24.88 16.38,-24.88"/>
</a>
</g>
</g>
<!-- PolygonLocationReference&#45;&gt;Coordinates -->
<g id="edge4" class="edge">
<title>PolygonLocationReference&#45;&gt;Coordinates</title>
<path fill="none" stroke="black" d="M160.83,-115.1C139.28,-99.39 106.98,-75.83 82.98,-58.32"/>
<polygon fill="black" stroke="black" points="85.27,-55.66 75.12,-52.59 81.14,-61.31 85.27,-55.66"/>
<text xml:space="preserve" text-anchor="middle" x="161.82" y="-86.55" font-family="Arial" font-size="11.00"> hasCorner </text>
<text xml:space="preserve" text-anchor="middle" x="161.82" y="-73.05" font-family="Arial" font-size="11.00"> «min 3» &#160;</text>
</g>
<!-- Invis&#45;&gt;Coordinates -->
</g>
</svg>
