<?xml version="1.0" encoding="UTF-8" standalone="no"?>
<!DOCTYPE svg PUBLIC "-//W3C//DTD SVG 1.1//EN"
 "http://www.w3.org/Graphics/SVG/1.1/DTD/svg11.dtd">
<!-- Generated by graphviz version 14.0.2 (20251019.1705)
 -->
<!-- Pages: 1 -->
<svg width="318pt" height="404pt"
 viewBox="0.00 0.00 318.00 404.00" xmlns="http://www.w3.org/2000/svg" xmlns:xlink="http://www.w3.org/1999/xlink">
<g id="graph0" class="graph" transform="scale(1 1) rotate(0) translate(4 400)">
<polygon fill="white" stroke="none" points="-4,4 -4,-400 313.6,-400 313.6,4 -4,4"/>
<g id="clust2" class="cluster">
<title>cluster_associated</title>
</g>
<!-- LocationReferencePoint -->
<g id="node1" class="node">
<title>LocationReferencePoint</title>
<g id="a_node1"><a xlink:href="../classes/OpenLR__LocationReferencePoint.md" xlink:title="&lt;TABLE&gt;">
<polygon fill="lightgray" stroke="none" points="113.5,-296.88 113.5,-313.12 244.5,-313.12 244.5,-296.88 113.5,-296.88"/>
<text xml:space="preserve" text-anchor="start" x="114.5" y="-300.73" font-family="Arial" font-size="12.00">LocationReferencePoint</text>
<polygon fill="none" stroke="black" points="112.5,-295.88 112.5,-314.12 245.5,-314.12 245.5,-295.88 112.5,-295.88"/>
</a>
</g>
</g>
<!-- OpenLRThing -->
<g id="node2" class="node">
<title>OpenLRThing</title>
<g id="a_node2"><a xlink:href="../_counters/OpenLR__OpenLRThing.md" xlink:title="&lt;TABLE&gt;">
<polygon fill="lightgray" stroke="none" points="140.5,-369.88 140.5,-386.12 217.5,-386.12 217.5,-369.88 140.5,-369.88"/>
<text xml:space="preserve" text-anchor="start" x="141.5" y="-373.73" font-family="Arial" font-size="12.00">OpenLRThing</text>
<polygon fill="none" stroke="black" points="139.5,-368.88 139.5,-387.12 218.5,-387.12 218.5,-368.88 139.5,-368.88"/>
</a>
</g>
</g>
<!-- LocationReferencePoint&#45;&gt;OpenLRThing -->
<g id="edge1" class="edge">
<title>LocationReferencePoint&#45;&gt;OpenLRThing</title>
<path fill="none" stroke="black" d="M179,-322.71C179,-330.47 179,-339.92 179,-348.74"/>
<polygon fill="none" stroke="black" points="175.5,-348.66 179,-358.66 182.5,-348.66 175.5,-348.66"/>
</g>
<!-- Invis -->
<!-- LocationReferencePoint&#45;&gt;Invis -->
<!-- Coordinates -->
<g id="node4" class="node">
<title>Coordinates</title>
<g id="a_node4"><a xlink:href="../_counters/OpenLR__Coordinates.md" xlink:title="&lt;TABLE&gt;">
<polygon fill="lightgray" stroke="none" points="23.38,-197.88 23.38,-214.12 90.62,-214.12 90.62,-197.88 23.38,-197.88"/>
<text xml:space="preserve" text-anchor="start" x="24.38" y="-201.72" font-family="Arial" font-size="12.00">Coordinates</text>
<polygon fill="none" stroke="black" points="22.38,-196.88 22.38,-215.12 91.62,-215.12 91.62,-196.88 22.38,-196.88"/>
</a>
</g>
</g>
<!-- LocationReferencePoint&#45;&gt;Coordinates -->
<g id="edge6" class="edge">
<title>LocationReferencePoint&#45;&gt;Coordinates</title>
<path fill="none" stroke="black" d="M112.86,-287.03C89.43,-280.41 67.9,-273.38 64.25,-269 56.57,-259.8 54.17,-246.98 53.93,-235.38"/>
<polygon fill="black" stroke="black" points="57.42,-235.57 54.27,-225.46 50.43,-235.33 57.42,-235.57"/>
<text xml:space="preserve" text-anchor="middle" x="105.12" y="-258.55" font-family="Arial" font-size="11.00"> hasCoordinates </text>
<text xml:space="preserve" text-anchor="middle" x="105.12" y="-245.05" font-family="Arial" font-size="11.00"> «exactly 1» &#160;</text>
</g>
<!-- LineAttributes -->
<g id="node5" class="node">
<title>LineAttributes</title>
<g id="a_node5"><a xlink:href="../_counters/OpenLR__LineAttributes.md" xlink:title="&lt;TABLE&gt;">
<polygon fill="lightgray" stroke="none" points="19.25,-98.88 19.25,-115.12 94.75,-115.12 94.75,-98.88 19.25,-98.88"/>
<text xml:space="preserve" text-anchor="start" x="20.25" y="-102.72" font-family="Arial" font-size="12.00">LineAttributes</text>
<polygon fill="none" stroke="black" points="18.25,-97.88 18.25,-116.12 95.75,-116.12 95.75,-97.88 18.25,-97.88"/>
</a>
</g>
</g>
<!-- LocationReferencePoint&#45;&gt;LineAttributes -->
<g id="edge7" class="edge">
<title>LocationReferencePoint&#45;&gt;LineAttributes</title>
<path fill="none" stroke="black" d="M170.61,-287.18C164.18,-274.57 154.93,-256.98 146,-242 123.04,-203.5 93.89,-160.61 75.33,-133.96"/>
<polygon fill="black" stroke="black" points="78.24,-132.01 69.64,-125.83 72.51,-136.03 78.24,-132.01"/>
<text xml:space="preserve" text-anchor="middle" x="179.24" y="-209.05" font-family="Arial" font-size="11.00"> hasLineAttributes </text>
<text xml:space="preserve" text-anchor="middle" x="179.24" y="-195.55" font-family="Arial" font-size="11.00"> «exactly 1» &#160;</text>
</g>
<!-- PathAttributes -->
<g id="node6" class="node">
<title>PathAttributes</title>
<g id="a_node6"><a xlink:href="../_counters/OpenLR__PathAttributes.md" xlink:title="&lt;TABLE&gt;">
<polygon fill="lightgray" stroke="none" points="17.5,-25.88 17.5,-42.12 94.5,-42.12 94.5,-25.88 17.5,-25.88"/>
<text xml:space="preserve" text-anchor="start" x="18.5" y="-29.73" font-family="Arial" font-size="12.00">PathAttributes</text>
<polygon fill="none" stroke="black" points="16.5,-24.88 16.5,-43.12 95.5,-43.12 95.5,-24.88 16.5,-24.88"/>
</a>
</g>
</g>
<!-- LocationReferencePoint&#45;&gt;PathAttributes -->
<g id="edge8" class="edge">
<title>LocationReferencePoint&#45;&gt;PathAttributes</title>
<path fill="none" stroke="black" d="M194.98,-287.38C214.69,-264.77 243.76,-223.1 228,-188 201.41,-128.76 139.29,-83.09 97.45,-57.62"/>
<polygon fill="black" stroke="black" points="99.49,-54.76 89.11,-52.66 95.92,-60.78 99.49,-54.76"/>
<text xml:space="preserve" text-anchor="middle" x="263.85" y="-159.55" font-family="Arial" font-size="11.00"> hasPathAttributes </text>
<text xml:space="preserve" text-anchor="middle" x="263.85" y="-146.05" font-family="Arial" font-size="11.00"> «max 1» &#160;</text>
</g>
<!-- Invis&#45;&gt;Coordinates -->
<!-- Coordinates&#45;&gt;LineAttributes -->
<!-- LineAttributes&#45;&gt;PathAttributes -->
</g>
</svg>
