<?xml version="1.0" encoding="UTF-8" standalone="no"?>
<!DOCTYPE svg PUBLIC "-//W3C//DTD SVG 1.1//EN"
 "http://www.w3.org/Graphics/SVG/1.1/DTD/svg11.dtd">
<!-- Generated by graphviz version 14.0.2 (20251019.1705)
 -->
<!-- Pages: 1 -->
<svg width="336pt" height="305pt"
 viewBox="0.00 0.00 336.00 305.00" xmlns="http://www.w3.org/2000/svg" xmlns:xlink="http://www.w3.org/1999/xlink">
<g id="graph0" class="graph" transform="scale(1 1) rotate(0) translate(4 301)">
<polygon fill="white" stroke="none" points="-4,4 -4,-301 331.88,-301 331.88,4 -4,4"/>
<g id="clust2" class="cluster">
<title>cluster_associated</title>
</g>
<!-- LineAttributes -->
<g id="node1" class="node">
<title>LineAttributes</title>
<g id="a_node1"><a xlink:href="../classes/OpenLR__LineAttributes.md" xlink:title="&lt;TABLE&gt;">
<polygon fill="lightgray" stroke="none" points="153.12,-206 153.12,-222.25 326.88,-222.25 326.88,-206 153.12,-206"/>
<text xml:space="preserve" text-anchor="start" x="203.25" y="-209.85" font-family="Arial" font-size="12.00">LineAttributes</text>
<text xml:space="preserve" text-anchor="start" x="154.12" y="-193.6" font-family="Arial" font-size="12.00">bearing: xsd::integer «exactly 1»</text>
<polygon fill="none" stroke="black" points="152.12,-188.75 152.12,-223.25 327.88,-223.25 327.88,-188.75 152.12,-188.75"/>
</a>
</g>
</g>
<!-- OpenLRThing -->
<g id="node2" class="node">
<title>OpenLRThing</title>
<g id="a_node2"><a xlink:href="../_counters/OpenLR__OpenLRThing.md" xlink:title="&lt;TABLE&gt;">
<polygon fill="lightgray" stroke="none" points="201.5,-270.88 201.5,-287.12 278.5,-287.12 278.5,-270.88 201.5,-270.88"/>
<text xml:space="preserve" text-anchor="start" x="202.5" y="-274.73" font-family="Arial" font-size="12.00">OpenLRThing</text>
<polygon fill="none" stroke="black" points="200.5,-269.88 200.5,-288.12 279.5,-288.12 279.5,-269.88 200.5,-269.88"/>
</a>
</g>
</g>
<!-- LineAttributes&#45;&gt;OpenLRThing -->
<g id="edge1" class="edge">
<title>LineAttributes&#45;&gt;OpenLRThing</title>
<path fill="none" stroke="black" d="M240,-223.71C240,-231.47 240,-240.92 240,-249.74"/>
<polygon fill="none" stroke="black" points="236.5,-249.66 240,-259.66 243.5,-249.66 236.5,-249.66"/>
</g>
<!-- Invis -->
<!-- LineAttributes&#45;&gt;Invis -->
<!-- FormOfWay -->
<g id="node4" class="node">
<title>FormOfWay</title>
<g id="a_node4"><a xlink:href="../_counters/OpenLR__FormOfWay.md" xlink:title="&lt;TABLE&gt;">
<polygon fill="lightgray" stroke="none" points="57.12,-98.88 57.12,-115.12 122.88,-115.12 122.88,-98.88 57.12,-98.88"/>
<text xml:space="preserve" text-anchor="start" x="58.12" y="-102.72" font-family="Arial" font-size="12.00">FormOfWay</text>
<polygon fill="none" stroke="black" points="56.12,-97.88 56.12,-116.12 123.88,-116.12 123.88,-97.88 56.12,-97.88"/>
</a>
</g>
</g>
<!-- LineAttributes&#45;&gt;FormOfWay -->
<g id="edge6" class="edge">
<title>LineAttributes&#45;&gt;FormOfWay</title>
<path fill="none" stroke="black" d="M186.42,-188.13C174.29,-183.18 161.8,-177.14 151,-170 135.9,-160.02 121.56,-145.78 110.59,-133.47"/>
<polygon fill="black" stroke="black" points="113.39,-131.37 104.21,-126.08 108.09,-135.94 113.39,-131.37"/>
<text xml:space="preserve" text-anchor="middle" x="182.5" y="-159.55" font-family="Arial" font-size="11.00"> hasFOW </text>
<text xml:space="preserve" text-anchor="middle" x="182.5" y="-146.05" font-family="Arial" font-size="11.00"> «exactly 1» &#160;</text>
</g>
<!-- FunctionalRoadClass -->
<g id="node5" class="node">
<title>FunctionalRoadClass</title>
<g id="a_node5"><a xlink:href="../_counters/OpenLR__FunctionalRoadClass.md" xlink:title="&lt;TABLE&gt;">
<polygon fill="lightgray" stroke="none" points="16.88,-25.88 16.88,-42.12 135.12,-42.12 135.12,-25.88 16.88,-25.88"/>
<text xml:space="preserve" text-anchor="start" x="17.88" y="-29.73" font-family="Arial" font-size="12.00">FunctionalRoadClass</text>
<polygon fill="none" stroke="black" points="15.88,-24.88 15.88,-43.12 136.12,-43.12 136.12,-24.88 15.88,-24.88"/>
</a>
</g>
</g>
<!-- LineAttributes&#45;&gt;FunctionalRoadClass -->
<g id="edge5" class="edge">
<title>LineAttributes&#45;&gt;FunctionalRoadClass</title>
<path fill="none" stroke="black" d="M235.53,-188.27C231.44,-175.06 224.41,-156.64 214,-143 186.93,-107.54 145.6,-77.27 115.22,-57.88"/>
<polygon fill="black" stroke="black" points="117.39,-55.11 107.06,-52.77 113.68,-61.04 117.39,-55.11"/>
<text xml:space="preserve" text-anchor="middle" x="230.15" y="-110.05" font-family="Arial" font-size="11.00"> hasFRC </text>
<text xml:space="preserve" text-anchor="middle" x="230.15" y="-96.55" font-family="Arial" font-size="11.00"> «exactly 1» &#160;</text>
</g>
<!-- Invis&#45;&gt;FormOfWay -->
<!-- FormOfWay&#45;&gt;FunctionalRoadClass -->
</g>
</svg>
