<?xml version="1.0" encoding="UTF-8" standalone="no"?>
<!DOCTYPE svg PUBLIC "-//W3C//DTD SVG 1.1//EN"
 "http://www.w3.org/Graphics/SVG/1.1/DTD/svg11.dtd">
<!-- Generated by graphviz version 14.0.2 (20251019.1705)
 -->
<!-- Pages: 1 -->
<svg width="280pt" height="139pt"
 viewBox="0.00 0.00 280.00 139.00" xmlns="http://www.w3.org/2000/svg" xmlns:xlink="http://www.w3.org/1999/xlink">
<g id="graph0" class="graph" transform="scale(1 1) rotate(0) translate(4 135.38)">
<polygon fill="white" stroke="none" points="-4,4 -4,-135.38 276.38,-135.38 276.38,4 -4,4"/>
<g id="clust2" class="cluster">
<title>cluster_associated</title>
</g>
<!-- Coordinates -->
<g id="node1" class="node">
<title>Coordinates</title>
<g id="a_node1"><a xlink:href="../classes/OpenLR__Coordinates.md" xlink:title="&lt;TABLE&gt;">
<polygon fill="lightgray" stroke="none" points="1,-42.12 1,-58.38 183.75,-58.38 183.75,-42.12 1,-42.12"/>
<text xml:space="preserve" text-anchor="start" x="59.75" y="-45.98" font-family="Arial" font-size="12.00">Coordinates</text>
<text xml:space="preserve" text-anchor="start" x="2" y="-29.73" font-family="Arial" font-size="12.00">latitude: xsd::double «exactly 1»</text>
<text xml:space="preserve" text-anchor="start" x="2" y="-13.47" font-family="Arial" font-size="12.00">longitude: xsd::double «exactly 1»</text>
<polygon fill="none" stroke="black" points="0,-8.62 0,-59.38 184.75,-59.38 184.75,-8.62 0,-8.62"/>
</a>
</g>
</g>
<!-- OpenLRThing -->
<g id="node2" class="node">
<title>OpenLRThing</title>
<g id="a_node2"><a xlink:href="../_counters/OpenLR__OpenLRThing.md" xlink:title="&lt;TABLE&gt;">
<polygon fill="lightgray" stroke="none" points="53.88,-105.25 53.88,-121.5 130.88,-121.5 130.88,-105.25 53.88,-105.25"/>
<text xml:space="preserve" text-anchor="start" x="54.88" y="-109.1" font-family="Arial" font-size="12.00">OpenLRThing</text>
<polygon fill="none" stroke="black" points="52.88,-104.25 52.88,-122.5 131.88,-122.5 131.88,-104.25 52.88,-104.25"/>
</a>
</g>
</g>
<!-- Coordinates&#45;&gt;OpenLRThing -->
<g id="edge1" class="edge">
<title>Coordinates&#45;&gt;OpenLRThing</title>
<path fill="none" stroke="black" d="M92.38,-59.1C92.38,-67.05 92.38,-75.97 92.38,-84.21"/>
<polygon fill="none" stroke="black" points="88.88,-84.07 92.38,-94.07 95.88,-84.07 88.88,-84.07"/>
</g>
<!-- Invis -->
</g>
</svg>
