<?xml version="1.0" encoding="UTF-8" standalone="no"?>
<!DOCTYPE svg PUBLIC "-//W3C//DTD SVG 1.1//EN"
 "http://www.w3.org/Graphics/SVG/1.1/DTD/svg11.dtd">
<!-- Generated by graphviz version 14.0.2 (20251019.1705)
 -->
<!-- Pages: 1 -->
<svg width="240pt" height="232pt"
 viewBox="0.00 0.00 240.00 232.00" xmlns="http://www.w3.org/2000/svg" xmlns:xlink="http://www.w3.org/1999/xlink">
<g id="graph0" class="graph" transform="scale(1 1) rotate(0) translate(4 228)">
<polygon fill="white" stroke="none" points="-4,4 -4,-228 236.04,-228 236.04,4 -4,4"/>
<g id="clust2" class="cluster">
<title>cluster_associated</title>
</g>
<!-- AreaLocation -->
<g id="node1" class="node">
<title>AreaLocation</title>
<g id="a_node1"><a xlink:href="../classes/itsLocation__AreaLocation.md" xlink:title="&lt;TABLE&gt;">
<polygon fill="lightgray" stroke="none" points="109.38,-124.88 109.38,-141.12 182.62,-141.12 182.62,-124.88 109.38,-124.88"/>
<text xml:space="preserve" text-anchor="start" x="110.38" y="-128.72" font-family="Arial" font-size="12.00">AreaLocation</text>
<polygon fill="none" stroke="black" points="108.38,-123.88 108.38,-142.12 183.62,-142.12 183.62,-123.88 108.38,-123.88"/>
</a>
</g>
</g>
<!-- Location -->
<g id="node2" class="node">
<title>Location</title>
<g id="a_node2"><a xlink:href="../_counters/itsLocation__Location.md" xlink:title="&lt;TABLE&gt;">
<polygon fill="lightgray" stroke="none" points="122.12,-197.88 122.12,-214.12 169.88,-214.12 169.88,-197.88 122.12,-197.88"/>
<text xml:space="preserve" text-anchor="start" x="123.12" y="-201.72" font-family="Arial" font-size="12.00">Location</text>
<polygon fill="none" stroke="black" points="121.12,-196.88 121.12,-215.12 170.88,-215.12 170.88,-196.88 121.12,-196.88"/>
</a>
</g>
</g>
<!-- AreaLocation&#45;&gt;Location -->
<g id="edge1" class="edge">
<title>AreaLocation&#45;&gt;Location</title>
<path fill="none" stroke="black" d="M146,-150.71C146,-158.47 146,-167.92 146,-176.74"/>
<polygon fill="none" stroke="black" points="142.5,-176.66 146,-186.66 149.5,-176.66 142.5,-176.66"/>
</g>
<!-- Invis -->
<!-- AreaLocation&#45;&gt;Invis -->
<!-- code__Code -->
<g id="node4" class="node">
<title>code__Code</title>
<polygon fill="lightgray" stroke="none" points="17.25,-25.88 17.25,-42.12 80.75,-42.12 80.75,-25.88 17.25,-25.88"/>
<text xml:space="preserve" text-anchor="start" x="18.25" y="-29.73" font-family="Arial" font-size="12.00">code::Code</text>
<polygon fill="none" stroke="black" points="16.25,-24.88 16.25,-43.12 81.75,-43.12 81.75,-24.88 16.25,-24.88"/>
</g>
<!-- AreaLocation&#45;&gt;code__Code -->
<g id="edge4" class="edge">
<title>AreaLocation&#45;&gt;code__Code</title>
<path fill="none" stroke="black" d="M129.1,-115.1C113.8,-99.8 91.07,-77.07 73.73,-59.73"/>
<polygon fill="black" stroke="black" points="76.32,-57.37 66.77,-52.77 71.37,-62.32 76.32,-57.37"/>
<text xml:space="preserve" text-anchor="middle" x="170.54" y="-86.55" font-family="Arial" font-size="11.00"> areasAtWhichApplicable </text>
<text xml:space="preserve" text-anchor="middle" x="170.54" y="-73.05" font-family="Arial" font-size="11.00"> «max 1, only» &#160;</text>
</g>
<!-- Invis&#45;&gt;code__Code -->
</g>
</svg>
