<?xml version="1.0" encoding="UTF-8" standalone="no"?>
<!DOCTYPE svg PUBLIC "-//W3C//DTD SVG 1.1//EN"
 "http://www.w3.org/Graphics/SVG/1.1/DTD/svg11.dtd">
<!-- Generated by graphviz version 14.0.2 (20251019.1705)
 -->
<!-- Pages: 1 -->
<svg width="370pt" height="247pt"
 viewBox="0.00 0.00 370.00 247.00" xmlns="http://www.w3.org/2000/svg" xmlns:xlink="http://www.w3.org/1999/xlink">
<g id="graph0" class="graph" transform="scale(1 1) rotate(0) translate(4 242.75)">
<polygon fill="white" stroke="none" points="-4,4 -4,-242.75 366.38,-242.75 366.38,4 -4,4"/>
<g id="clust2" class="cluster">
<title>cluster_associated</title>
</g>
<!-- LineLocationReference -->
<g id="node1" class="node">
<title>LineLocationReference</title>
<g id="a_node1"><a xlink:href="../classes/OpenLR__LineLocationReference.md" xlink:title="&lt;TABLE&gt;">
<polygon fill="lightgray" stroke="none" points="166.62,-148.5 166.62,-164.75 361.38,-164.75 361.38,-148.5 166.62,-148.5"/>
<text xml:space="preserve" text-anchor="start" x="201.75" y="-152.35" font-family="Arial" font-size="12.00">LineLocationReference</text>
<text xml:space="preserve" text-anchor="start" x="167.62" y="-136.1" font-family="Arial" font-size="12.00">negativeOffset: xsd::integer «max 1»</text>
<text xml:space="preserve" text-anchor="start" x="167.62" y="-119.85" font-family="Arial" font-size="12.00">positiveOffset: xsd::integer «max 1»</text>
<polygon fill="none" stroke="black" points="165.62,-115 165.62,-165.75 362.38,-165.75 362.38,-115 165.62,-115"/>
</a>
</g>
</g>
<!-- LocationReference -->
<g id="node2" class="node">
<title>LocationReference</title>
<g id="a_node2"><a xlink:href="../_counters/OpenLR__LocationReference.md" xlink:title="&lt;TABLE&gt;">
<polygon fill="lightgray" stroke="none" points="212.38,-212.62 212.38,-228.88 315.62,-228.88 315.62,-212.62 212.38,-212.62"/>
<text xml:space="preserve" text-anchor="start" x="213.38" y="-216.47" font-family="Arial" font-size="12.00">LocationReference</text>
<polygon fill="none" stroke="black" points="211.38,-211.62 211.38,-229.88 316.62,-229.88 316.62,-211.62 211.38,-211.62"/>
</a>
</g>
</g>
<!-- LineLocationReference&#45;&gt;LocationReference -->
<g id="edge1" class="edge">
<title>LineLocationReference&#45;&gt;LocationReference</title>
<path fill="none" stroke="black" d="M264,-165.71C264,-173.97 264,-183.27 264,-191.79"/>
<polygon fill="none" stroke="black" points="260.5,-191.62 264,-201.62 267.5,-191.62 260.5,-191.62"/>
</g>
<!-- Invis -->
<!-- LineLocationReference&#45;&gt;Invis -->
<!-- LocationReferencePoint -->
<g id="node4" class="node">
<title>LocationReferencePoint</title>
<g id="a_node4"><a xlink:href="../_counters/OpenLR__LocationReferencePoint.md" xlink:title="&lt;TABLE&gt;">
<polygon fill="lightgray" stroke="none" points="17.5,-25.88 17.5,-42.12 148.5,-42.12 148.5,-25.88 17.5,-25.88"/>
<text xml:space="preserve" text-anchor="start" x="18.5" y="-29.73" font-family="Arial" font-size="12.00">LocationReferencePoint</text>
<polygon fill="none" stroke="black" points="16.5,-24.88 16.5,-43.12 149.5,-43.12 149.5,-24.88 16.5,-24.88"/>
</a>
</g>
</g>
<!-- LineLocationReference&#45;&gt;LocationReferencePoint -->
<g id="edge4" class="edge">
<title>LineLocationReference&#45;&gt;LocationReferencePoint</title>
<path fill="none" stroke="black" d="M222.02,-115.17C191.94,-97.82 151.71,-74.62 122.26,-57.64"/>
<polygon fill="black" stroke="black" points="124.05,-54.63 113.64,-52.67 120.56,-60.7 124.05,-54.63"/>
<text xml:space="preserve" text-anchor="middle" x="213.34" y="-86.55" font-family="Arial" font-size="11.00"> hasLRP </text>
<text xml:space="preserve" text-anchor="middle" x="213.34" y="-73.05" font-family="Arial" font-size="11.00"> «min 2» &#160;</text>
</g>
<!-- Invis&#45;&gt;LocationReferencePoint -->
</g>
</svg>
