<?xml version="1.0" encoding="UTF-8" standalone="no"?>
<!DOCTYPE svg PUBLIC "-//W3C//DTD SVG 1.1//EN"
 "http://www.w3.org/Graphics/SVG/1.1/DTD/svg11.dtd">
<!-- Generated by graphviz version 14.0.2 (20251019.1705)
 -->
<!-- Pages: 1 -->
<svg width="274pt" height="232pt"
 viewBox="0.00 0.00 274.00 232.00" xmlns="http://www.w3.org/2000/svg" xmlns:xlink="http://www.w3.org/1999/xlink">
<g id="graph0" class="graph" transform="scale(1 1) rotate(0) translate(4 228)">
<polygon fill="white" stroke="none" points="-4,4 -4,-228 270,-228 270,4 -4,4"/>
<g id="clust2" class="cluster">
<title>cluster_associated</title>
</g>
<!-- RectangleLocationReference -->
<g id="node1" class="node">
<title>RectangleLocationReference</title>
<g id="a_node1"><a xlink:href="../classes/OpenLR__RectangleLocationReference.md" xlink:title="&lt;TABLE&gt;">
<polygon fill="lightgray" stroke="none" points="107,-124.88 107,-141.12 265,-141.12 265,-124.88 107,-124.88"/>
<text xml:space="preserve" text-anchor="start" x="108" y="-128.72" font-family="Arial" font-size="12.00">RectangleLocationReference</text>
<polygon fill="none" stroke="black" points="106,-123.88 106,-142.12 266,-142.12 266,-123.88 106,-123.88"/>
</a>
</g>
</g>
<!-- LocationReference -->
<g id="node2" class="node">
<title>LocationReference</title>
<g id="a_node2"><a xlink:href="../_counters/OpenLR__LocationReference.md" xlink:title="&lt;TABLE&gt;">
<polygon fill="lightgray" stroke="none" points="134.38,-197.88 134.38,-214.12 237.62,-214.12 237.62,-197.88 134.38,-197.88"/>
<text xml:space="preserve" text-anchor="start" x="135.38" y="-201.72" font-family="Arial" font-size="12.00">LocationReference</text>
<polygon fill="none" stroke="black" points="133.38,-196.88 133.38,-215.12 238.62,-215.12 238.62,-196.88 133.38,-196.88"/>
</a>
</g>
</g>
<!-- RectangleLocationReference&#45;&gt;LocationReference -->
<g id="edge1" class="edge">
<title>RectangleLocationReference&#45;&gt;LocationReference</title>
<path fill="none" stroke="black" d="M186,-150.71C186,-158.47 186,-167.92 186,-176.74"/>
<polygon fill="none" stroke="black" points="182.5,-176.66 186,-186.66 189.5,-176.66 182.5,-176.66"/>
</g>
<!-- Invis -->
<!-- RectangleLocationReference&#45;&gt;Invis -->
<!-- Coordinates -->
<g id="node4" class="node">
<title>Coordinates</title>
<g id="a_node4"><a xlink:href="../_counters/OpenLR__Coordinates.md" xlink:title="&lt;TABLE&gt;">
<polygon fill="lightgray" stroke="none" points="17.38,-25.88 17.38,-42.12 84.62,-42.12 84.62,-25.88 17.38,-25.88"/>
<text xml:space="preserve" text-anchor="start" x="18.38" y="-29.73" font-family="Arial" font-size="12.00">Coordinates</text>
<polygon fill="none" stroke="black" points="16.38,-24.88 16.38,-43.12 85.62,-43.12 85.62,-24.88 16.38,-24.88"/>
</a>
</g>
</g>
<!-- RectangleLocationReference&#45;&gt;Coordinates -->
<g id="edge4" class="edge">
<title>RectangleLocationReference&#45;&gt;Coordinates</title>
<path fill="none" stroke="black" d="M119.72,-115.05C108.67,-110.35 97.85,-104.43 88.75,-97 77.42,-87.75 68.61,-74.15 62.36,-62.05"/>
<polygon fill="black" stroke="black" points="65.65,-60.82 58.18,-53.3 59.33,-63.83 65.65,-60.82"/>
<text xml:space="preserve" text-anchor="middle" x="124.38" y="-86.55" font-family="Arial" font-size="11.00"> hasLowerLeft </text>
<text xml:space="preserve" text-anchor="middle" x="124.38" y="-73.05" font-family="Arial" font-size="11.00"> «exactly 1» &#160;</text>
</g>
<!-- RectangleLocationReference&#45;&gt;Coordinates -->
<g id="edge5" class="edge">
<title>RectangleLocationReference&#45;&gt;Coordinates</title>
<path fill="none" stroke="black" d="M182.96,-115C179.61,-101.09 172.9,-81.83 160,-70 142.68,-54.11 118.1,-45.44 96.67,-40.7"/>
<polygon fill="black" stroke="black" points="97.45,-37.28 86.97,-38.8 96.11,-44.15 97.45,-37.28"/>
<text xml:space="preserve" text-anchor="middle" x="216.13" y="-86.55" font-family="Arial" font-size="11.00"> hasUpperRight </text>
<text xml:space="preserve" text-anchor="middle" x="216.13" y="-73.05" font-family="Arial" font-size="11.00"> «exactly 1» &#160;</text>
</g>
<!-- Invis&#45;&gt;Coordinates -->
</g>
</svg>
