<?xml version="1.0" encoding="UTF-8" standalone="no"?>
<!DOCTYPE svg PUBLIC "-//W3C//DTD SVG 1.1//EN"
 "http://www.w3.org/Graphics/SVG/1.1/DTD/svg11.dtd">
<!-- Generated by graphviz version 14.1.3 (20260303.0454)
 -->
<!-- Pages: 1 -->
<svg width="251pt" height="279pt"
 viewBox="0.00 0.00 251.00 279.00" xmlns="http://www.w3.org/2000/svg" xmlns:xlink="http://www.w3.org/1999/xlink">
<g id="graph0" class="graph" transform="scale(1 1) rotate(0) translate(4 275)">
<polygon fill="white" stroke="none" points="-4,4 -4,-275 246.81,-275 246.81,4 -4,4"/>
<g id="clust3" class="cluster">
<title>cluster_associated</title>
</g>
<!-- AreaGeometry -->
<g id="node1" class="node">
<title>AreaGeometry</title>
<g id="a_node1"><a xlink:href="../AreaGeometry" xlink:title="&lt;TABLE&gt;">
<polygon fill="lightgray" stroke="none" points="66.38,-244.88 66.38,-261.12 145.62,-261.12 145.62,-244.88 66.38,-244.88"/>
<text xml:space="preserve" text-anchor="start" x="67.38" y="-248.88" font-family="Arial" font-size="12.00">AreaGeometry</text>
<polygon fill="none" stroke="black" points="65.38,-243.88 65.38,-262.12 146.62,-262.12 146.62,-243.88 65.38,-243.88"/>
</a>
</g>
</g>
<!-- AreaByRectangle -->
<g id="node2" class="node">
<title>AreaByRectangle</title>
<g id="a_node2"><a xlink:href="../AreaByRectangle" xlink:title="&lt;TABLE&gt;">
<polygon fill="lightgray" stroke="none" points="57.75,-171.88 57.75,-188.12 154.25,-188.12 154.25,-171.88 57.75,-171.88"/>
<text xml:space="preserve" text-anchor="start" x="58.75" y="-175.88" font-family="Arial" font-size="12.00">AreaByRectangle</text>
<polygon fill="none" stroke="black" points="56.75,-170.88 56.75,-189.12 155.25,-189.12 155.25,-170.88 56.75,-170.88"/>
</a>
</g>
</g>
<!-- AreaByRectangle&#45;&gt;AreaGeometry -->
<g id="edge1" class="edge">
<title>AreaByRectangle&#45;&gt;AreaGeometry</title>
<path fill="none" stroke="black" d="M106,-197.71C106,-205.47 106,-214.92 106,-223.74"/>
<polygon fill="none" stroke="black" points="102.5,-223.66 106,-233.66 109.5,-223.66 102.5,-223.66"/>
</g>
<!-- Invis -->
<!-- AreaByRectangle&#45;&gt;Invis -->
<!-- PointFeature -->
<g id="node4" class="node">
<title>PointFeature</title>
<g id="a_node4"><a xlink:href="../PointFeature" xlink:title="&lt;TABLE&gt;">
<polygon fill="lightgray" stroke="none" points="17.5,-25.88 17.5,-42.12 88.5,-42.12 88.5,-25.88 17.5,-25.88"/>
<text xml:space="preserve" text-anchor="start" x="18.5" y="-29.88" font-family="Arial" font-size="12.00">PointFeature</text>
<polygon fill="none" stroke="black" points="16.5,-24.88 16.5,-43.12 89.5,-43.12 89.5,-24.88 16.5,-24.88"/>
</a>
</g>
</g>
<!-- AreaByRectangle&#45;&gt;PointFeature -->
<g id="edge4" class="edge">
<title>AreaByRectangle&#45;&gt;PointFeature</title>
<path fill="none" stroke="black" d="M101.79,-162.15C97.04,-143.86 88.68,-113.94 79,-89 75.51,-80 71.13,-70.42 66.97,-61.88"/>
<polygon fill="black" stroke="black" points="70.17,-60.46 62.57,-53.08 63.91,-63.59 70.17,-60.46"/>
<text xml:space="preserve" text-anchor="middle" x="126.13" y="-103.3" font-family="Arial" font-size="11.00">hasLowerLeft</text>
</g>
<!-- AreaByRectangle&#45;&gt;PointFeature -->
<g id="edge5" class="edge">
<title>AreaByRectangle&#45;&gt;PointFeature</title>
<path fill="none" stroke="black" d="M136.69,-162.01C147.02,-154.57 157.35,-144.82 163,-133 171.43,-115.36 173.34,-105.6 163,-89 149.16,-66.79 123.22,-53.45 100.01,-45.59"/>
<polygon fill="black" stroke="black" points="101.27,-42.32 90.69,-42.71 99.2,-49.01 101.27,-42.32"/>
<text xml:space="preserve" text-anchor="middle" x="206.43" y="-103.3" font-family="Arial" font-size="11.00">hasUpperRight</text>
</g>
<!-- Invis&#45;&gt;PointFeature -->
</g>
</svg>
