<?xml version="1.0" encoding="UTF-8" standalone="no"?>
<!DOCTYPE svg PUBLIC "-//W3C//DTD SVG 1.1//EN"
 "http://www.w3.org/Graphics/SVG/1.1/DTD/svg11.dtd">
<!-- Generated by graphviz version 14.1.3 (20260303.0454)
 -->
<!-- Pages: 1 -->
<svg width="225pt" height="132pt"
 viewBox="0.00 0.00 225.00 132.00" xmlns="http://www.w3.org/2000/svg" xmlns:xlink="http://www.w3.org/1999/xlink">
<g id="graph0" class="graph" transform="scale(1 1) rotate(0) translate(4 128)">
<polygon fill="white" stroke="none" points="-4,4 -4,-128 220.62,-128 220.62,4 -4,4"/>
<g id="clust3" class="cluster">
<title>cluster_associated</title>
</g>
<!-- AreaGeometry -->
<g id="node1" class="node">
<title>AreaGeometry</title>
<g id="a_node1"><a xlink:href="../AreaGeometry" xlink:title="&lt;TABLE&gt;">
<polygon fill="lightgray" stroke="none" points="1,-97.88 1,-114.12 80.25,-114.12 80.25,-97.88 1,-97.88"/>
<text xml:space="preserve" text-anchor="start" x="2" y="-101.88" font-family="Arial" font-size="12.00">AreaGeometry</text>
<polygon fill="none" stroke="black" points="0,-96.88 0,-115.12 81.25,-115.12 81.25,-96.88 0,-96.88"/>
</a>
</g>
</g>
<!-- sf_Polygon -->
<g id="node2" class="node">
<title>sf_Polygon</title>
<g id="a_node2"><a xlink:href="https://w3id.org/citydata/imported/sf/latest/Polygon" xlink:title="&lt;TABLE&gt;">
<polygon fill="lightgray" stroke="none" points="100.5,-97.88 100.5,-114.12 158.75,-114.12 158.75,-97.88 100.5,-97.88"/>
<text xml:space="preserve" text-anchor="start" x="101.5" y="-101.88" font-family="Arial" font-size="12.00">sf:Polygon</text>
<polygon fill="none" stroke="black" points="99.5,-96.88 99.5,-115.12 159.75,-115.12 159.75,-96.88 99.5,-96.88"/>
</a>
</g>
</g>
<!-- AreaByPolygon -->
<g id="node3" class="node">
<title>AreaByPolygon</title>
<g id="a_node3"><a xlink:href="../AreaByPolygon" xlink:title="&lt;TABLE&gt;">
<polygon fill="lightgray" stroke="none" points="41.62,-25.88 41.62,-42.12 127.62,-42.12 127.62,-25.88 41.62,-25.88"/>
<text xml:space="preserve" text-anchor="start" x="42.62" y="-29.88" font-family="Arial" font-size="12.00">AreaByPolygon</text>
<polygon fill="none" stroke="black" points="40.62,-24.88 40.62,-43.12 128.62,-43.12 128.62,-24.88 40.62,-24.88"/>
</a>
</g>
</g>
<!-- AreaByPolygon&#45;&gt;AreaGeometry -->
<g id="edge1" class="edge">
<title>AreaByPolygon&#45;&gt;AreaGeometry</title>
<path fill="none" stroke="black" d="M74.07,-51.79C69.06,-59.76 62.95,-69.48 57.33,-78.43"/>
<polygon fill="none" stroke="black" points="54.44,-76.44 52.08,-86.77 60.37,-80.17 54.44,-76.44"/>
</g>
<!-- AreaByPolygon&#45;&gt;sf_Polygon -->
<g id="edge2" class="edge">
<title>AreaByPolygon&#45;&gt;sf_Polygon</title>
<path fill="none" stroke="black" d="M95.42,-51.79C100.54,-59.76 106.79,-69.48 112.54,-78.43"/>
<polygon fill="none" stroke="black" points="109.56,-80.26 117.91,-86.78 115.45,-76.48 109.56,-80.26"/>
</g>
<!-- Invis -->
</g>
</svg>
