<?xml version="1.0" encoding="UTF-8" standalone="no"?>
<!DOCTYPE svg PUBLIC "-//W3C//DTD SVG 1.1//EN"
 "http://www.w3.org/Graphics/SVG/1.1/DTD/svg11.dtd">
<!-- Generated by graphviz version 14.1.3 (20260303.0454)
 -->
<!-- Pages: 1 -->
<svg width="176pt" height="132pt"
 viewBox="0.00 0.00 176.00 132.00" xmlns="http://www.w3.org/2000/svg" xmlns:xlink="http://www.w3.org/1999/xlink">
<g id="graph0" class="graph" transform="scale(1 1) rotate(0) translate(4 128)">
<polygon fill="white" stroke="none" points="-4,4 -4,-128 171.5,-128 171.5,4 -4,4"/>
<g id="clust3" class="cluster">
<title>cluster_associated</title>
</g>
<!-- Feature -->
<g id="node1" class="node">
<title>Feature</title>
<g id="a_node1"><a xlink:href="../Feature" xlink:title="&lt;TABLE&gt;">
<polygon fill="lightgray" stroke="none" points="17.88,-97.88 17.88,-114.12 61.12,-114.12 61.12,-97.88 17.88,-97.88"/>
<text xml:space="preserve" text-anchor="start" x="18.88" y="-101.88" font-family="Arial" font-size="12.00">Feature</text>
<polygon fill="none" stroke="black" points="16.88,-96.88 16.88,-115.12 62.12,-115.12 62.12,-96.88 16.88,-96.88"/>
</a>
</g>
</g>
<!-- LinearFeature -->
<g id="node2" class="node">
<title>LinearFeature</title>
<g id="a_node2"><a xlink:href="../LinearFeature" xlink:title="&lt;TABLE&gt;">
<polygon fill="lightgray" stroke="none" points="1,-25.88 1,-42.12 78,-42.12 78,-25.88 1,-25.88"/>
<text xml:space="preserve" text-anchor="start" x="2" y="-29.88" font-family="Arial" font-size="12.00">LinearFeature</text>
<polygon fill="none" stroke="black" points="0,-24.88 0,-43.12 79,-43.12 79,-24.88 0,-24.88"/>
</a>
</g>
</g>
<!-- LinearFeature&#45;&gt;Feature -->
<g id="edge1" class="edge">
<title>LinearFeature&#45;&gt;Feature</title>
<path fill="none" stroke="black" d="M39.5,-51.79C39.5,-59.25 39.5,-68.24 39.5,-76.69"/>
<polygon fill="none" stroke="black" points="36,-76.54 39.5,-86.54 43,-76.54 36,-76.54"/>
</g>
<!-- Invis -->
</g>
</svg>
