<?xml version="1.0" encoding="UTF-8" standalone="no"?>
<!DOCTYPE svg PUBLIC "-//W3C//DTD SVG 1.1//EN"
 "http://www.w3.org/Graphics/SVG/1.1/DTD/svg11.dtd">
<!-- Generated by graphviz version 14.1.3 (20260303.0454)
 -->
<!-- Pages: 1 -->
<svg width="209pt" height="152pt"
 viewBox="0.00 0.00 209.00 152.00" xmlns="http://www.w3.org/2000/svg" xmlns:xlink="http://www.w3.org/1999/xlink">
<g id="graph0" class="graph" transform="scale(1 1) rotate(0) translate(4 148)">
<polygon fill="white" stroke="none" points="-4,4 -4,-148 205.38,-148 205.38,4 -4,4"/>
<g id="clust3" class="cluster">
<title>cluster_associated</title>
</g>
<!-- Feature -->
<g id="node1" class="node">
<title>Feature</title>
<g id="a_node1"><a xlink:href="../Feature" xlink:title="&lt;TABLE&gt;">
<polygon fill="lightgray" stroke="none" points="19.75,-117.88 19.75,-134.12 63,-134.12 63,-117.88 19.75,-117.88"/>
<text xml:space="preserve" text-anchor="start" x="20.75" y="-121.88" font-family="Arial" font-size="12.00">Feature</text>
<polygon fill="none" stroke="black" points="18.75,-116.88 18.75,-135.12 64,-135.12 64,-116.88 18.75,-116.88"/>
</a>
</g>
</g>
<!-- LocationGroup -->
<g id="node2" class="node">
<title>LocationGroup</title>
<g id="a_node2"><a xlink:href="../LocationGroup" xlink:title="&lt;TABLE&gt;">
<polygon fill="lightgray" stroke="none" points="1,-9.88 1,-26.12 81.75,-26.12 81.75,-9.88 1,-9.88"/>
<text xml:space="preserve" text-anchor="start" x="2" y="-13.88" font-family="Arial" font-size="12.00">LocationGroup</text>
<polygon fill="none" stroke="black" points="0,-8.88 0,-27.12 82.75,-27.12 82.75,-8.88 0,-8.88"/>
</a>
</g>
</g>
<!-- LocationGroup&#45;&gt;Feature -->
<g id="edge1" class="edge">
<title>LocationGroup&#45;&gt;Feature</title>
<path fill="none" stroke="black" d="M39.93,-35.84C39.7,-39.2 39.5,-42.71 39.38,-46 38.63,-66.21 38.53,-73.18 39.47,-96.89"/>
<polygon fill="none" stroke="black" points="35.96,-96.8 39.87,-106.65 42.96,-96.51 35.96,-96.8"/>
</g>
<!-- LocationGroup&#45;&gt;Feature -->
<g id="edge2" class="edge">
<title>LocationGroup&#45;&gt;Feature</title>
<path fill="none" stroke="black" d="M41.38,-35.8C41.38,-52.28 41.38,-77.7 41.38,-97.2"/>
<polygon fill="black" stroke="black" points="37.88,-96.92 41.38,-106.92 44.88,-96.92 37.88,-96.92"/>
<text xml:space="preserve" text-anchor="middle" x="69.88" y="-75.05" font-family="Arial" font-size="11.00">hasMember</text>
<text xml:space="preserve" text-anchor="middle" x="69.88" y="-61.55" font-family="Arial" font-size="11.00">2..*</text>
</g>
<!-- Invis -->
</g>
</svg>
