<?xml version="1.0" encoding="UTF-8" standalone="no"?>
<!DOCTYPE svg PUBLIC "-//W3C//DTD SVG 1.1//EN"
 "http://www.w3.org/Graphics/SVG/1.1/DTD/svg11.dtd">
<!-- Generated by graphviz version 14.1.3 (20260303.0454)
 -->
<!-- Pages: 1 -->
<svg width="198pt" height="132pt"
 viewBox="0.00 0.00 198.00 132.00" xmlns="http://www.w3.org/2000/svg" xmlns:xlink="http://www.w3.org/1999/xlink">
<g id="graph0" class="graph" transform="scale(1 1) rotate(0) translate(4 128)">
<polygon fill="white" stroke="none" points="-4,4 -4,-128 194.12,-128 194.12,4 -4,4"/>
<g id="clust3" class="cluster">
<title>cluster_associated</title>
</g>
<!-- rdf_List -->
<g id="node1" class="node">
<title>rdf_List</title>
<g id="a_node1"><a xlink:href="https://w3id.org/citydata/imported/rdf/latest/List" xlink:title="&lt;TABLE&gt;">
<polygon fill="lightgray" stroke="none" points="32.5,-97.88 32.5,-114.12 69.75,-114.12 69.75,-97.88 32.5,-97.88"/>
<text xml:space="preserve" text-anchor="start" x="33.5" y="-101.88" font-family="Arial" font-size="12.00">rdf:List</text>
<polygon fill="none" stroke="black" points="31.5,-96.88 31.5,-115.12 70.75,-115.12 70.75,-96.88 31.5,-96.88"/>
</a>
</g>
</g>
<!-- PointGeometryList -->
<g id="node2" class="node">
<title>PointGeometryList</title>
<g id="a_node2"><a xlink:href="../PointGeometryList" xlink:title="&lt;TABLE&gt;">
<polygon fill="lightgray" stroke="none" points="1,-34 1,-50.25 101.25,-50.25 101.25,-34 1,-34"/>
<text xml:space="preserve" text-anchor="start" x="2" y="-38" font-family="Arial" font-size="12.00">PointGeometryList</text>
<text xml:space="preserve" text-anchor="start" x="2" y="-21.75" font-family="Arial" font-size="12.00">rdf:first</text>
<polygon fill="none" stroke="black" points="0,-16.75 0,-51.25 102.25,-51.25 102.25,-16.75 0,-16.75"/>
</a>
</g>
</g>
<!-- PointGeometryList&#45;&gt;rdf_List -->
<g id="edge1" class="edge">
<title>PointGeometryList&#45;&gt;rdf_List</title>
<path fill="none" stroke="black" d="M51.12,-51.79C51.12,-59.25 51.12,-68.24 51.12,-76.69"/>
<polygon fill="none" stroke="black" points="47.63,-76.54 51.13,-86.54 54.63,-76.54 47.63,-76.54"/>
</g>
<!-- Invis -->
</g>
</svg>
