<?xml version="1.0" encoding="UTF-8" standalone="no"?>
<!DOCTYPE svg PUBLIC "-//W3C//DTD SVG 1.1//EN"
 "http://www.w3.org/Graphics/SVG/1.1/DTD/svg11.dtd">
<!-- Generated by graphviz version 14.1.3 (20260303.0454)
 -->
<!-- Pages: 1 -->
<svg width="188pt" height="132pt"
 viewBox="0.00 0.00 188.00 132.00" xmlns="http://www.w3.org/2000/svg" xmlns:xlink="http://www.w3.org/1999/xlink">
<g id="graph0" class="graph" transform="scale(1 1) rotate(0) translate(4 128)">
<polygon fill="white" stroke="none" points="-4,4 -4,-128 183.88,-128 183.88,4 -4,4"/>
<g id="clust3" class="cluster">
<title>cluster_associated</title>
</g>
<!-- rdf_List -->
<g id="node1" class="node">
<title>rdf_List</title>
<g id="a_node1"><a xlink:href="https://w3id.org/citydata/imported/rdf/latest/List" xlink:title="&lt;TABLE&gt;">
<polygon fill="lightgray" stroke="none" points="27.25,-97.88 27.25,-114.12 64.5,-114.12 64.5,-97.88 27.25,-97.88"/>
<text xml:space="preserve" text-anchor="start" x="28.25" y="-101.88" font-family="Arial" font-size="12.00">rdf:List</text>
<polygon fill="none" stroke="black" points="26.25,-96.88 26.25,-115.12 65.5,-115.12 65.5,-96.88 26.25,-96.88"/>
</a>
</g>
</g>
<!-- PointFeatureList -->
<g id="node2" class="node">
<title>PointFeatureList</title>
<g id="a_node2"><a xlink:href="../PointFeatureList" xlink:title="&lt;TABLE&gt;">
<polygon fill="lightgray" stroke="none" points="1,-34 1,-50.25 90.75,-50.25 90.75,-34 1,-34"/>
<text xml:space="preserve" text-anchor="start" x="2" y="-38" font-family="Arial" font-size="12.00">PointFeatureList</text>
<text xml:space="preserve" text-anchor="start" x="2" y="-21.75" font-family="Arial" font-size="12.00">rdf:first</text>
<polygon fill="none" stroke="black" points="0,-16.75 0,-51.25 91.75,-51.25 91.75,-16.75 0,-16.75"/>
</a>
</g>
</g>
<!-- PointFeatureList&#45;&gt;rdf_List -->
<g id="edge1" class="edge">
<title>PointFeatureList&#45;&gt;rdf_List</title>
<path fill="none" stroke="black" d="M45.88,-51.79C45.88,-59.25 45.88,-68.24 45.88,-76.69"/>
<polygon fill="none" stroke="black" points="42.38,-76.54 45.88,-86.54 49.38,-76.54 42.38,-76.54"/>
</g>
<!-- Invis -->
</g>
</svg>
