<?xml version="1.0" encoding="UTF-8" standalone="no"?>
<!DOCTYPE svg PUBLIC "-//W3C//DTD SVG 1.1//EN"
 "http://www.w3.org/Graphics/SVG/1.1/DTD/svg11.dtd">
<!-- Generated by graphviz version 14.1.3 (20260303.0454)
 -->
<!-- Pages: 1 -->
<svg width="198pt" height="286pt"
 viewBox="0.00 0.00 198.00 286.00" xmlns="http://www.w3.org/2000/svg" xmlns:xlink="http://www.w3.org/1999/xlink">
<g id="graph0" class="graph" transform="scale(1 1) rotate(0) translate(4 282)">
<polygon fill="white" stroke="none" points="-4,4 -4,-282 194.41,-282 194.41,4 -4,4"/>
<g id="clust3" class="cluster">
<title>cluster_associated</title>
</g>
<!-- AreaGeometry -->
<g id="node1" class="node">
<title>AreaGeometry</title>
<g id="a_node1"><a xlink:href="../AreaGeometry" xlink:title="&lt;TABLE&gt;">
<polygon fill="lightgray" stroke="none" points="40.38,-251.88 40.38,-268.12 119.62,-268.12 119.62,-251.88 40.38,-251.88"/>
<text xml:space="preserve" text-anchor="start" x="41.38" y="-255.88" font-family="Arial" font-size="12.00">AreaGeometry</text>
<polygon fill="none" stroke="black" points="39.38,-250.88 39.38,-269.12 120.62,-269.12 120.62,-250.88 39.38,-250.88"/>
</a>
</g>
</g>
<!-- AreaByLinearBoundaries -->
<g id="node2" class="node">
<title>AreaByLinearBoundaries</title>
<g id="a_node2"><a xlink:href="../AreaByLinearBoundaries" xlink:title="&lt;TABLE&gt;">
<polygon fill="lightgray" stroke="none" points="11.5,-178.88 11.5,-195.12 148.5,-195.12 148.5,-178.88 11.5,-178.88"/>
<text xml:space="preserve" text-anchor="start" x="12.5" y="-182.88" font-family="Arial" font-size="12.00">AreaByLinearBoundaries</text>
<polygon fill="none" stroke="black" points="10.5,-177.88 10.5,-196.12 149.5,-196.12 149.5,-177.88 10.5,-177.88"/>
</a>
</g>
</g>
<!-- AreaByLinearBoundaries&#45;&gt;AreaGeometry -->
<g id="edge1" class="edge">
<title>AreaByLinearBoundaries&#45;&gt;AreaGeometry</title>
<path fill="none" stroke="black" d="M80,-204.71C80,-212.47 80,-221.92 80,-230.74"/>
<polygon fill="none" stroke="black" points="76.5,-230.66 80,-240.66 83.5,-230.66 76.5,-230.66"/>
</g>
<!-- Invis -->
<!-- AreaByLinearBoundaries&#45;&gt;Invis -->
<!-- LinearFeature -->
<g id="node4" class="node">
<title>LinearFeature</title>
<g id="a_node4"><a xlink:href="../LinearFeature" xlink:title="&lt;TABLE&gt;">
<polygon fill="lightgray" stroke="none" points="17.5,-25.88 17.5,-42.12 94.5,-42.12 94.5,-25.88 17.5,-25.88"/>
<text xml:space="preserve" text-anchor="start" x="18.5" y="-29.88" font-family="Arial" font-size="12.00">LinearFeature</text>
<polygon fill="none" stroke="black" points="16.5,-24.88 16.5,-43.12 95.5,-43.12 95.5,-24.88 16.5,-24.88"/>
</a>
</g>
</g>
<!-- AreaByLinearBoundaries&#45;&gt;LinearFeature -->
<g id="edge4" class="edge">
<title>AreaByLinearBoundaries&#45;&gt;LinearFeature</title>
<path fill="none" stroke="black" d="M83.82,-169.23C87.6,-149.66 91.91,-116.47 85,-89 82.6,-79.46 78.15,-69.77 73.45,-61.28"/>
<polygon fill="black" stroke="black" points="76.6,-59.73 68.48,-52.92 70.58,-63.3 76.6,-59.73"/>
<polygon fill="white" stroke="none" points="88.66,-89 88.66,-132 190.41,-132 190.41,-89 88.66,-89"/>
<text xml:space="preserve" text-anchor="start" x="92.66" y="-117.5" font-family="Arial" font-size="11.00">hasLinearBoundary</text>
<text xml:space="preserve" text-anchor="start" x="131.29" y="-96" font-family="Arial" font-size="11.00">1..*</text>
</g>
<!-- Invis&#45;&gt;LinearFeature -->
</g>
</svg>
