<?xml version="1.0" encoding="UTF-8" standalone="no"?>
<!DOCTYPE svg PUBLIC "-//W3C//DTD SVG 1.1//EN"
 "http://www.w3.org/Graphics/SVG/1.1/DTD/svg11.dtd">
<!-- Generated by graphviz version 14.1.3 (20260303.0454)
 -->
<!-- Pages: 1 -->
<svg width="160pt" height="139pt"
 viewBox="0.00 0.00 160.00 139.00" xmlns="http://www.w3.org/2000/svg" xmlns:xlink="http://www.w3.org/1999/xlink">
<g id="graph0" class="graph" transform="scale(1 1) rotate(0) translate(4 135.38)">
<polygon fill="white" stroke="none" points="-4,4 -4,-135.38 156,-135.38 156,4 -4,4"/>
<g id="clust3" class="cluster">
<title>cluster_associated</title>
</g>
<!-- rdf_List -->
<g id="node1" class="node">
<title>rdf_List</title>
<g id="a_node1"><a xlink:href="https://w3id.org/citydata/imported/rdf/latest/List" xlink:title="&lt;TABLE&gt;">
<polygon fill="lightgray" stroke="none" points="13.38,-105.25 13.38,-121.5 50.62,-121.5 50.62,-105.25 13.38,-105.25"/>
<text xml:space="preserve" text-anchor="start" x="14.38" y="-109.25" font-family="Arial" font-size="12.00">rdf:List</text>
<polygon fill="none" stroke="black" points="12.38,-104.25 12.38,-122.5 51.62,-122.5 51.62,-104.25 12.38,-104.25"/>
</a>
</g>
</g>
<!-- FeatureList -->
<g id="node2" class="node">
<title>FeatureList</title>
<g id="a_node2"><a xlink:href="../FeatureList" xlink:title="&lt;TABLE&gt;">
<polygon fill="lightgray" stroke="none" points="1,-42.12 1,-58.38 63,-58.38 63,-42.12 1,-42.12"/>
<text xml:space="preserve" text-anchor="start" x="2" y="-46.12" font-family="Arial" font-size="12.00">FeatureList</text>
<text xml:space="preserve" text-anchor="start" x="2" y="-29.88" font-family="Arial" font-size="12.00">rdf:first [1]</text>
<text xml:space="preserve" text-anchor="start" x="2" y="-13.62" font-family="Arial" font-size="12.00">rdf:rest [1]</text>
<polygon fill="none" stroke="black" points="0,-8.62 0,-59.38 64,-59.38 64,-8.62 0,-8.62"/>
</a>
</g>
</g>
<!-- FeatureList&#45;&gt;rdf_List -->
<g id="edge1" class="edge">
<title>FeatureList&#45;&gt;rdf_List</title>
<path fill="none" stroke="black" d="M32,-59.1C32,-67.05 32,-75.97 32,-84.21"/>
<polygon fill="none" stroke="black" points="28.5,-84.07 32,-94.07 35.5,-84.07 28.5,-84.07"/>
</g>
<!-- Invis -->
</g>
</svg>
