<?xml version="1.0" encoding="UTF-8" standalone="no"?>
<!DOCTYPE svg PUBLIC "-//W3C//DTD SVG 1.1//EN"
 "http://www.w3.org/Graphics/SVG/1.1/DTD/svg11.dtd">
<!-- Generated by graphviz version 14.1.3 (20260303.0454)
 -->
<!-- Pages: 1 -->
<svg width="916pt" height="481pt"
 viewBox="0.00 0.00 916.00 481.00" xmlns="http://www.w3.org/2000/svg" xmlns:xlink="http://www.w3.org/1999/xlink">
<g id="graph0" class="graph" transform="scale(1 1) rotate(0) translate(4 477)">
<polygon fill="white" stroke="none" points="-4,4 -4,-477 912.25,-477 912.25,4 -4,4"/>
<g id="clust3" class="cluster">
<title>cluster_associated</title>
</g>
<!-- LocationThing -->
<g id="node1" class="node">
<title>LocationThing</title>
<g id="a_node1"><a xlink:href="../LocationThing" xlink:title="&lt;TABLE&gt;">
<polygon fill="lightgray" stroke="none" points="352.75,-446.88 352.75,-463.12 431.25,-463.12 431.25,-446.88 352.75,-446.88"/>
<text xml:space="preserve" text-anchor="start" x="353.75" y="-450.88" font-family="Arial" font-size="12.00">LocationThing</text>
<polygon fill="none" stroke="black" points="351.75,-445.88 351.75,-464.12 432.25,-464.12 432.25,-445.88 351.75,-445.88"/>
</a>
</g>
</g>
<!-- PositionConfidenceEllipse -->
<g id="node2" class="node">
<title>PositionConfidenceEllipse</title>
<g id="a_node2"><a xlink:href="../PositionConfidenceEllipse" xlink:title="&lt;TABLE&gt;">
<polygon fill="lightgray" stroke="none" points="320.12,-373.88 320.12,-390.12 463.88,-390.12 463.88,-373.88 320.12,-373.88"/>
<text xml:space="preserve" text-anchor="start" x="321.12" y="-377.88" font-family="Arial" font-size="12.00">PositionConfidenceEllipse</text>
<polygon fill="none" stroke="black" points="319.12,-372.88 319.12,-391.12 464.88,-391.12 464.88,-372.88 319.12,-372.88"/>
</a>
</g>
</g>
<!-- PositionConfidenceEllipse&#45;&gt;LocationThing -->
<g id="edge1" class="edge">
<title>PositionConfidenceEllipse&#45;&gt;LocationThing</title>
<path fill="none" stroke="black" d="M392,-399.71C392,-407.47 392,-416.92 392,-425.74"/>
<polygon fill="none" stroke="black" points="388.5,-425.66 392,-435.66 395.5,-425.66 388.5,-425.66"/>
</g>
<!-- Invis -->
<!-- PositionConfidenceEllipse&#45;&gt;Invis -->
<!-- cdm1_Length -->
<g id="node4" class="node">
<title>cdm1_Length</title>
<g id="a_node4"><a xlink:href="https://w3id.org/citydata/part1/v1/Length" xlink:title="&lt;TABLE&gt;">
<polygon fill="lightgray" stroke="none" points="69.5,-175.38 69.5,-191.62 140.5,-191.62 140.5,-175.38 69.5,-175.38"/>
<text xml:space="preserve" text-anchor="start" x="70.5" y="-179.38" font-family="Arial" font-size="12.00">cdm1:Length</text>
<polygon fill="none" stroke="black" points="68.5,-174.38 68.5,-192.62 141.5,-192.62 141.5,-174.38 68.5,-174.38"/>
</a>
</g>
</g>
<!-- PositionConfidenceEllipse&#45;&gt;cdm1_Length -->
<g id="edge6" class="edge">
<title>PositionConfidenceEllipse&#45;&gt;cdm1_Length</title>
<path fill="none" stroke="black" d="M319.33,-377.38C248.14,-372.21 146.6,-359.96 120.25,-331.5 90.6,-299.48 93.62,-245.1 98.98,-212.22"/>
<polygon fill="black" stroke="black" points="102.38,-213.12 100.74,-202.65 95.49,-211.86 102.38,-213.12"/>
<polygon fill="white" stroke="none" points="120.25,-284 120.25,-327 231,-327 231,-284 120.25,-284"/>
<text xml:space="preserve" text-anchor="start" x="124.25" y="-312.5" font-family="Arial" font-size="11.00">semiMajorAxisLength</text>
<text xml:space="preserve" text-anchor="start" x="166.62" y="-291" font-family="Arial" font-size="11.00">0..1</text>
</g>
<!-- PositionConfidenceEllipse&#45;&gt;cdm1_Length -->
<g id="edge7" class="edge">
<title>PositionConfidenceEllipse&#45;&gt;cdm1_Length</title>
<path fill="none" stroke="black" d="M330.49,-364.05C309.15,-356.31 285.92,-345.64 267.25,-331.5 246.08,-315.46 249.62,-302.93 231,-284 202.45,-254.97 165.46,-226.68 138.96,-207.73"/>
<polygon fill="black" stroke="black" points="141.13,-204.98 130.94,-202.06 137.08,-210.69 141.13,-204.98"/>
<polygon fill="white" stroke="none" points="267.25,-284 267.25,-327 378,-327 378,-284 267.25,-284"/>
<text xml:space="preserve" text-anchor="start" x="271.25" y="-312.5" font-family="Arial" font-size="11.00">semiMinorAxisLength</text>
<text xml:space="preserve" text-anchor="start" x="313.62" y="-291" font-family="Arial" font-size="11.00">0..1</text>
</g>
<!-- its&#45;core_Bearing -->
<g id="node5" class="node">
<title>its&#45;core_Bearing</title>
<g id="a_node5"><a xlink:href="https://w3id.org/itsdata/core/v1/Bearing" xlink:title="&lt;TABLE&gt;">
<polygon fill="lightgray" stroke="none" points="61,-98.88 61,-115.12 147,-115.12 147,-98.88 61,-98.88"/>
<text xml:space="preserve" text-anchor="start" x="62" y="-102.88" font-family="Arial" font-size="12.00">its&#45;core:Bearing</text>
<polygon fill="none" stroke="black" points="60,-97.88 60,-116.12 148,-116.12 148,-97.88 60,-97.88"/>
</a>
</g>
</g>
<!-- PositionConfidenceEllipse&#45;&gt;its&#45;core_Bearing -->
<g id="edge8" class="edge">
<title>PositionConfidenceEllipse&#45;&gt;its&#45;core_Bearing</title>
<path fill="none" stroke="black" d="M394.89,-364.12C397.54,-342.55 398.41,-305.44 378,-284 349.2,-253.74 323.29,-284.33 285.75,-266 218.38,-233.11 156.22,-168.78 125.02,-133.19"/>
<polygon fill="black" stroke="black" points="127.95,-131.22 118.76,-125.94 122.65,-135.8 127.95,-131.22"/>
<polygon fill="white" stroke="none" points="285.75,-223 285.75,-266 416,-266 416,-223 285.75,-223"/>
<text xml:space="preserve" text-anchor="start" x="289.75" y="-251.5" font-family="Arial" font-size="11.00">semiMajorAxisOrientation</text>
<text xml:space="preserve" text-anchor="start" x="341.88" y="-230" font-family="Arial" font-size="11.00">0..1</text>
</g>
<!-- MeasurementErrorCode -->
<g id="node6" class="node">
<title>MeasurementErrorCode</title>
<g id="a_node6"><a xlink:href="../MeasurementErrorCode" xlink:title="&lt;TABLE&gt;">
<polygon fill="lightgray" stroke="none" points="16.88,-25.88 16.88,-42.12 147.12,-42.12 147.12,-25.88 16.88,-25.88"/>
<text xml:space="preserve" text-anchor="start" x="17.88" y="-29.88" font-family="Arial" font-size="12.00">MeasurementErrorCode</text>
<polygon fill="none" stroke="black" points="15.88,-24.88 15.88,-43.12 148.12,-43.12 148.12,-24.88 15.88,-24.88"/>
</a>
</g>
</g>
<!-- PositionConfidenceEllipse&#45;&gt;MeasurementErrorCode -->
<g id="edge9" class="edge">
<title>PositionConfidenceEllipse&#45;&gt;MeasurementErrorCode</title>
<path fill="none" stroke="black" d="M401.88,-364.2C418.85,-332.9 448.7,-265.06 416,-223 396.09,-197.38 374.99,-217.97 345.25,-205 297.66,-184.24 174.69,-99.93 115.2,-58.38"/>
<polygon fill="black" stroke="black" points="117.32,-55.59 107.12,-52.72 113.31,-61.32 117.32,-55.59"/>
<polygon fill="white" stroke="none" points="345.25,-162 345.25,-205 507,-205 507,-162 345.25,-162"/>
<text xml:space="preserve" text-anchor="start" x="349.25" y="-190.5" font-family="Arial" font-size="11.00">semiMajorAxisLengthErrorCode</text>
<text xml:space="preserve" text-anchor="start" x="417.12" y="-169" font-family="Arial" font-size="11.00">0..1</text>
</g>
<!-- PositionConfidenceEllipse&#45;&gt;MeasurementErrorCode -->
<g id="edge10" class="edge">
<title>PositionConfidenceEllipse&#45;&gt;MeasurementErrorCode</title>
<path fill="none" stroke="black" d="M464.51,-368.53C497.37,-358.3 529,-339.8 529,-306.5 529,-306.5 529,-306.5 529,-106 529,-69.01 287.12,-48.02 159.22,-39.51"/>
<polygon fill="black" stroke="black" points="159.67,-36.03 149.47,-38.87 159.22,-43.01 159.67,-36.03"/>
<polygon fill="white" stroke="none" points="529,-162 529,-205 690.75,-205 690.75,-162 529,-162"/>
<text xml:space="preserve" text-anchor="start" x="533" y="-190.5" font-family="Arial" font-size="11.00">semiMinorAxisLengthErrorCode</text>
<text xml:space="preserve" text-anchor="start" x="600.88" y="-169" font-family="Arial" font-size="11.00">0..1</text>
</g>
<!-- PositionConfidenceEllipse&#45;&gt;MeasurementErrorCode -->
<g id="edge11" class="edge">
<title>PositionConfidenceEllipse&#45;&gt;MeasurementErrorCode</title>
<path fill="none" stroke="black" d="M464.69,-379.31C563.22,-375 727,-359.82 727,-306.5 727,-306.5 727,-306.5 727,-106 727,-49.49 330.8,-37.95 159.44,-35.6"/>
<polygon fill="black" stroke="black" points="159.55,-32.1 149.51,-35.47 159.46,-39.1 159.55,-32.1"/>
<polygon fill="white" stroke="none" points="727,-162 727,-205 908.25,-205 908.25,-162 727,-162"/>
<text xml:space="preserve" text-anchor="start" x="731" y="-190.5" font-family="Arial" font-size="11.00">semiMajorAxisOrientationErrorCode</text>
<text xml:space="preserve" text-anchor="start" x="808.62" y="-169" font-family="Arial" font-size="11.00">0..1</text>
</g>
<!-- Invis&#45;&gt;cdm1_Length -->
<!-- cdm1_Length&#45;&gt;its&#45;core_Bearing -->
<!-- its&#45;core_Bearing&#45;&gt;MeasurementErrorCode -->
</g>
</svg>
