<?xml version="1.0" encoding="UTF-8" standalone="no"?>
<!DOCTYPE svg PUBLIC "-//W3C//DTD SVG 1.1//EN"
 "http://www.w3.org/Graphics/SVG/1.1/DTD/svg11.dtd">
<!-- Generated by graphviz version 14.1.3 (20260303.0454)
 -->
<!-- Pages: 1 -->
<svg width="175pt" height="279pt"
 viewBox="0.00 0.00 175.00 279.00" xmlns="http://www.w3.org/2000/svg" xmlns:xlink="http://www.w3.org/1999/xlink">
<g id="graph0" class="graph" transform="scale(1 1) rotate(0) translate(4 275)">
<polygon fill="white" stroke="none" points="-4,4 -4,-275 171.09,-275 171.09,4 -4,4"/>
<g id="clust3" class="cluster">
<title>cluster_associated</title>
</g>
<!-- Geometry -->
<g id="node1" class="node">
<title>Geometry</title>
<g id="a_node1"><a xlink:href="../Geometry" xlink:title="&lt;TABLE&gt;">
<polygon fill="lightgray" stroke="none" points="53.12,-244.88 53.12,-261.12 106.88,-261.12 106.88,-244.88 53.12,-244.88"/>
<text xml:space="preserve" text-anchor="start" x="54.12" y="-248.88" font-family="Arial" font-size="12.00">Geometry</text>
<polygon fill="none" stroke="black" points="52.12,-243.88 52.12,-262.12 107.88,-262.12 107.88,-243.88 52.12,-243.88"/>
</a>
</g>
</g>
<!-- CodedGeometry -->
<g id="node2" class="node">
<title>CodedGeometry</title>
<g id="a_node2"><a xlink:href="../CodedGeometry" xlink:title="&lt;TABLE&gt;">
<polygon fill="lightgray" stroke="none" points="35.12,-171.88 35.12,-188.12 124.88,-188.12 124.88,-171.88 35.12,-171.88"/>
<text xml:space="preserve" text-anchor="start" x="36.12" y="-175.88" font-family="Arial" font-size="12.00">CodedGeometry</text>
<polygon fill="none" stroke="black" points="34.12,-170.88 34.12,-189.12 125.88,-189.12 125.88,-170.88 34.12,-170.88"/>
</a>
</g>
</g>
<!-- CodedGeometry&#45;&gt;Geometry -->
<g id="edge1" class="edge">
<title>CodedGeometry&#45;&gt;Geometry</title>
<path fill="none" stroke="black" d="M80,-197.71C80,-205.47 80,-214.92 80,-223.74"/>
<polygon fill="none" stroke="black" points="76.5,-223.66 80,-233.66 83.5,-223.66 76.5,-223.66"/>
</g>
<!-- Invis -->
<!-- CodedGeometry&#45;&gt;Invis -->
<!-- LocationCode -->
<g id="node4" class="node">
<title>LocationCode</title>
<g id="a_node4"><a xlink:href="../LocationCode" xlink:title="&lt;TABLE&gt;">
<polygon fill="lightgray" stroke="none" points="17.5,-25.88 17.5,-42.12 94.5,-42.12 94.5,-25.88 17.5,-25.88"/>
<text xml:space="preserve" text-anchor="start" x="18.5" y="-29.88" font-family="Arial" font-size="12.00">LocationCode</text>
<polygon fill="none" stroke="black" points="16.5,-24.88 16.5,-43.12 95.5,-43.12 95.5,-24.88 16.5,-24.88"/>
</a>
</g>
</g>
<!-- CodedGeometry&#45;&gt;LocationCode -->
<g id="edge4" class="edge">
<title>CodedGeometry&#45;&gt;LocationCode</title>
<path fill="none" stroke="black" d="M83.9,-162.13C87.45,-143.83 91.26,-113.89 85,-89 82.6,-79.46 78.15,-69.77 73.45,-61.28"/>
<polygon fill="black" stroke="black" points="76.6,-59.73 68.48,-52.92 70.58,-63.3 76.6,-59.73"/>
<text xml:space="preserve" text-anchor="middle" x="127.72" y="-103.3" font-family="Arial" font-size="11.00">hasLookupCode</text>
</g>
<!-- Invis&#45;&gt;LocationCode -->
</g>
</svg>
