<?xml version="1.0" encoding="UTF-8" standalone="no"?>
<!DOCTYPE svg PUBLIC "-//W3C//DTD SVG 1.1//EN"
 "http://www.w3.org/Graphics/SVG/1.1/DTD/svg11.dtd">
<!-- Generated by graphviz version 14.1.3 (20260303.0454)
 -->
<!-- Pages: 1 -->
<svg width="194pt" height="132pt"
 viewBox="0.00 0.00 194.00 132.00" xmlns="http://www.w3.org/2000/svg" xmlns:xlink="http://www.w3.org/1999/xlink">
<g id="graph0" class="graph" transform="scale(1 1) rotate(0) translate(4 128)">
<polygon fill="white" stroke="none" points="-4,4 -4,-128 190.25,-128 190.25,4 -4,4"/>
<g id="clust3" class="cluster">
<title>cluster_associated</title>
</g>
<!-- Geometry -->
<g id="node1" class="node">
<title>Geometry</title>
<g id="a_node1"><a xlink:href="../Geometry" xlink:title="&lt;TABLE&gt;">
<polygon fill="lightgray" stroke="none" points="22.38,-97.88 22.38,-114.12 76.12,-114.12 76.12,-97.88 22.38,-97.88"/>
<text xml:space="preserve" text-anchor="start" x="23.38" y="-101.88" font-family="Arial" font-size="12.00">Geometry</text>
<polygon fill="none" stroke="black" points="21.38,-96.88 21.38,-115.12 77.12,-115.12 77.12,-96.88 21.38,-96.88"/>
</a>
</g>
</g>
<!-- ItineraryGeometry -->
<g id="node2" class="node">
<title>ItineraryGeometry</title>
<g id="a_node2"><a xlink:href="../ItineraryGeometry" xlink:title="&lt;TABLE&gt;">
<polygon fill="lightgray" stroke="none" points="1,-25.88 1,-42.12 97.5,-42.12 97.5,-25.88 1,-25.88"/>
<text xml:space="preserve" text-anchor="start" x="2" y="-29.88" font-family="Arial" font-size="12.00">ItineraryGeometry</text>
<polygon fill="none" stroke="black" points="0,-24.88 0,-43.12 98.5,-43.12 98.5,-24.88 0,-24.88"/>
</a>
</g>
</g>
<!-- ItineraryGeometry&#45;&gt;Geometry -->
<g id="edge1" class="edge">
<title>ItineraryGeometry&#45;&gt;Geometry</title>
<path fill="none" stroke="black" d="M49.25,-51.79C49.25,-59.25 49.25,-68.24 49.25,-76.69"/>
<polygon fill="none" stroke="black" points="45.75,-76.54 49.25,-86.54 52.75,-76.54 45.75,-76.54"/>
</g>
<!-- Invis -->
</g>
</svg>
