<?xml version="1.0" encoding="UTF-8" standalone="no"?>
<!DOCTYPE svg PUBLIC "-//W3C//DTD SVG 1.1//EN"
 "http://www.w3.org/Graphics/SVG/1.1/DTD/svg11.dtd">
<!-- Generated by graphviz version 14.1.3 (20260303.0454)
 -->
<!-- Pages: 1 -->
<svg width="236pt" height="132pt"
 viewBox="0.00 0.00 236.00 132.00" xmlns="http://www.w3.org/2000/svg" xmlns:xlink="http://www.w3.org/1999/xlink">
<g id="graph0" class="graph" transform="scale(1 1) rotate(0) translate(4 128)">
<polygon fill="white" stroke="none" points="-4,4 -4,-128 231.88,-128 231.88,4 -4,4"/>
<g id="clust3" class="cluster">
<title>cluster_associated</title>
</g>
<!-- CodedGeometry -->
<g id="node1" class="node">
<title>CodedGeometry</title>
<g id="a_node1"><a xlink:href="../CodedGeometry" xlink:title="&lt;TABLE&gt;">
<polygon fill="lightgray" stroke="none" points="1,-97.88 1,-114.12 90.75,-114.12 90.75,-97.88 1,-97.88"/>
<text xml:space="preserve" text-anchor="start" x="2" y="-101.88" font-family="Arial" font-size="12.00">CodedGeometry</text>
<polygon fill="none" stroke="black" points="0,-96.88 0,-115.12 91.75,-115.12 91.75,-96.88 0,-96.88"/>
</a>
</g>
</g>
<!-- ItineraryGeometry -->
<g id="node2" class="node">
<title>ItineraryGeometry</title>
<g id="a_node2"><a xlink:href="../ItineraryGeometry" xlink:title="&lt;TABLE&gt;">
<polygon fill="lightgray" stroke="none" points="110.62,-97.88 110.62,-114.12 207.12,-114.12 207.12,-97.88 110.62,-97.88"/>
<text xml:space="preserve" text-anchor="start" x="111.62" y="-101.88" font-family="Arial" font-size="12.00">ItineraryGeometry</text>
<polygon fill="none" stroke="black" points="109.62,-96.88 109.62,-115.12 208.12,-115.12 208.12,-96.88 109.62,-96.88"/>
</a>
</g>
</g>
<!-- ItineraryCode -->
<g id="node3" class="node">
<title>ItineraryCode</title>
<g id="a_node3"><a xlink:href="../ItineraryCode" xlink:title="&lt;TABLE&gt;">
<polygon fill="lightgray" stroke="none" points="64.88,-25.88 64.88,-42.12 138.88,-42.12 138.88,-25.88 64.88,-25.88"/>
<text xml:space="preserve" text-anchor="start" x="65.88" y="-29.88" font-family="Arial" font-size="12.00">ItineraryCode</text>
<polygon fill="none" stroke="black" points="63.88,-24.88 63.88,-43.12 139.88,-43.12 139.88,-24.88 63.88,-24.88"/>
</a>
</g>
</g>
<!-- ItineraryCode&#45;&gt;CodedGeometry -->
<g id="edge1" class="edge">
<title>ItineraryCode&#45;&gt;CodedGeometry</title>
<path fill="none" stroke="black" d="M88.44,-51.79C81.86,-60.02 73.78,-70.11 66.44,-79.29"/>
<polygon fill="none" stroke="black" points="63.89,-76.88 60.38,-86.87 69.36,-81.25 63.89,-76.88"/>
</g>
<!-- ItineraryCode&#45;&gt;ItineraryGeometry -->
<g id="edge2" class="edge">
<title>ItineraryCode&#45;&gt;ItineraryGeometry</title>
<path fill="none" stroke="black" d="M115.55,-51.79C122.25,-60.02 130.47,-70.11 137.94,-79.29"/>
<polygon fill="none" stroke="black" points="135.09,-81.34 144.12,-86.88 140.52,-76.92 135.09,-81.34"/>
</g>
<!-- Invis -->
</g>
</svg>
