<?xml version="1.0" encoding="UTF-8" standalone="no"?>
<!DOCTYPE svg PUBLIC "-//W3C//DTD SVG 1.1//EN"
 "http://www.w3.org/Graphics/SVG/1.1/DTD/svg11.dtd">
<!-- Generated by graphviz version 14.1.3 (20260303.0454)
 -->
<!-- Pages: 1 -->
<svg width="171pt" height="279pt"
 viewBox="0.00 0.00 171.00 279.00" xmlns="http://www.w3.org/2000/svg" xmlns:xlink="http://www.w3.org/1999/xlink">
<g id="graph0" class="graph" transform="scale(1 1) rotate(0) translate(4 275)">
<polygon fill="white" stroke="none" points="-4,4 -4,-275 166.8,-275 166.8,4 -4,4"/>
<g id="clust3" class="cluster">
<title>cluster_associated</title>
</g>
<!-- ItineraryGeometry -->
<g id="node1" class="node">
<title>ItineraryGeometry</title>
<g id="a_node1"><a xlink:href="../ItineraryGeometry" xlink:title="&lt;TABLE&gt;">
<polygon fill="lightgray" stroke="none" points="27.75,-244.88 27.75,-261.12 124.25,-261.12 124.25,-244.88 27.75,-244.88"/>
<text xml:space="preserve" text-anchor="start" x="28.75" y="-248.88" font-family="Arial" font-size="12.00">ItineraryGeometry</text>
<polygon fill="none" stroke="black" points="26.75,-243.88 26.75,-262.12 125.25,-262.12 125.25,-243.88 26.75,-243.88"/>
</a>
</g>
</g>
<!-- ItineraryByWaypoints -->
<g id="node2" class="node">
<title>ItineraryByWaypoints</title>
<g id="a_node2"><a xlink:href="../ItineraryByWaypoints" xlink:title="&lt;TABLE&gt;">
<polygon fill="lightgray" stroke="none" points="18.38,-171.88 18.38,-188.12 133.62,-188.12 133.62,-171.88 18.38,-171.88"/>
<text xml:space="preserve" text-anchor="start" x="19.38" y="-175.88" font-family="Arial" font-size="12.00">ItineraryByWaypoints</text>
<polygon fill="none" stroke="black" points="17.38,-170.88 17.38,-189.12 134.62,-189.12 134.62,-170.88 17.38,-170.88"/>
</a>
</g>
</g>
<!-- ItineraryByWaypoints&#45;&gt;ItineraryGeometry -->
<g id="edge1" class="edge">
<title>ItineraryByWaypoints&#45;&gt;ItineraryGeometry</title>
<path fill="none" stroke="black" d="M76,-197.71C76,-205.47 76,-214.92 76,-223.74"/>
<polygon fill="none" stroke="black" points="72.5,-223.66 76,-233.66 79.5,-223.66 72.5,-223.66"/>
</g>
<!-- Invis -->
<!-- ItineraryByWaypoints&#45;&gt;Invis -->
<!-- FeatureList -->
<g id="node4" class="node">
<title>FeatureList</title>
<g id="a_node4"><a xlink:href="../FeatureList" xlink:title="&lt;TABLE&gt;">
<polygon fill="lightgray" stroke="none" points="17,-25.88 17,-42.12 79,-42.12 79,-25.88 17,-25.88"/>
<text xml:space="preserve" text-anchor="start" x="18" y="-29.88" font-family="Arial" font-size="12.00">FeatureList</text>
<polygon fill="none" stroke="black" points="16,-24.88 16,-43.12 80,-43.12 80,-24.88 16,-24.88"/>
</a>
</g>
</g>
<!-- ItineraryByWaypoints&#45;&gt;FeatureList -->
<g id="edge4" class="edge">
<title>ItineraryByWaypoints&#45;&gt;FeatureList</title>
<path fill="none" stroke="black" d="M80.17,-162.06C83.94,-143.69 87.95,-113.71 81,-89 78.29,-79.38 73.34,-69.77 68.08,-61.39"/>
<polygon fill="black" stroke="black" points="70.98,-59.43 62.49,-53.1 65.18,-63.35 70.98,-59.43"/>
<text xml:space="preserve" text-anchor="middle" x="123.8" y="-103.3" font-family="Arial" font-size="11.00">hasWaypointList</text>
</g>
<!-- Invis&#45;&gt;FeatureList -->
</g>
</svg>
