<?xml version="1.0" encoding="UTF-8" standalone="no"?>
<!DOCTYPE svg PUBLIC "-//W3C//DTD SVG 1.1//EN"
 "http://www.w3.org/Graphics/SVG/1.1/DTD/svg11.dtd">
<!-- Generated by graphviz version 14.0.2 (20251019.1705)
 -->
<!-- Pages: 1 -->
<svg width="257pt" height="232pt"
 viewBox="0.00 0.00 257.00 232.00" xmlns="http://www.w3.org/2000/svg" xmlns:xlink="http://www.w3.org/1999/xlink">
<g id="graph0" class="graph" transform="scale(1 1) rotate(0) translate(4 228)">
<polygon fill="white" stroke="none" points="-4,4 -4,-228 252.53,-228 252.53,4 -4,4"/>
<g id="clust2" class="cluster">
<title>cluster_associated</title>
</g>
<!-- LocationGroupByList -->
<g id="node1" class="node">
<title>LocationGroupByList</title>
<g id="a_node1"><a xlink:href="../classes/itsLocation__LocationGroupByList.md" xlink:title="&lt;TABLE&gt;">
<polygon fill="lightgray" stroke="none" points="106.12,-124.88 106.12,-141.12 219.88,-141.12 219.88,-124.88 106.12,-124.88"/>
<text xml:space="preserve" text-anchor="start" x="107.12" y="-128.72" font-family="Arial" font-size="12.00">LocationGroupByList</text>
<polygon fill="none" stroke="black" points="105.12,-123.88 105.12,-142.12 220.88,-142.12 220.88,-123.88 105.12,-123.88"/>
</a>
</g>
</g>
<!-- LocationGroup -->
<g id="node2" class="node">
<title>LocationGroup</title>
<g id="a_node2"><a xlink:href="../_counters/itsLocation__LocationGroup.md" xlink:title="&lt;TABLE&gt;">
<polygon fill="lightgray" stroke="none" points="122.62,-197.88 122.62,-214.12 203.38,-214.12 203.38,-197.88 122.62,-197.88"/>
<text xml:space="preserve" text-anchor="start" x="123.62" y="-201.72" font-family="Arial" font-size="12.00">LocationGroup</text>
<polygon fill="none" stroke="black" points="121.62,-196.88 121.62,-215.12 204.38,-215.12 204.38,-196.88 121.62,-196.88"/>
</a>
</g>
</g>
<!-- LocationGroupByList&#45;&gt;LocationGroup -->
<g id="edge1" class="edge">
<title>LocationGroupByList&#45;&gt;LocationGroup</title>
<path fill="none" stroke="black" d="M163,-150.71C163,-158.47 163,-167.92 163,-176.74"/>
<polygon fill="none" stroke="black" points="159.5,-176.66 163,-186.66 166.5,-176.66 159.5,-176.66"/>
</g>
<!-- Invis -->
<!-- LocationGroupByList&#45;&gt;Invis -->
<!-- Location -->
<g id="node4" class="node">
<title>Location</title>
<g id="a_node4"><a xlink:href="../_counters/itsLocation__Location.md" xlink:title="&lt;TABLE&gt;">
<polygon fill="lightgray" stroke="none" points="19.12,-25.88 19.12,-42.12 66.88,-42.12 66.88,-25.88 19.12,-25.88"/>
<text xml:space="preserve" text-anchor="start" x="20.12" y="-29.73" font-family="Arial" font-size="12.00">Location</text>
<polygon fill="none" stroke="black" points="18.12,-24.88 18.12,-43.12 67.88,-43.12 67.88,-24.88 18.12,-24.88"/>
</a>
</g>
</g>
<!-- LocationGroupByList&#45;&gt;Location -->
<g id="edge4" class="edge">
<title>LocationGroupByList&#45;&gt;Location</title>
<path fill="none" stroke="black" d="M142.1,-115.1C122.83,-99.53 94.02,-76.24 72.43,-58.79"/>
<polygon fill="black" stroke="black" points="74.82,-56.22 64.84,-52.65 70.42,-61.66 74.82,-56.22"/>
<text xml:space="preserve" text-anchor="middle" x="182.9" y="-86.55" font-family="Arial" font-size="11.00"> locationContainedInGroup </text>
<text xml:space="preserve" text-anchor="middle" x="182.9" y="-73.05" font-family="Arial" font-size="11.00"> «min 2, only» &#160;</text>
</g>
<!-- Invis&#45;&gt;Location -->
</g>
</svg>
