<?xml version="1.0" encoding="UTF-8" standalone="no"?>
<!DOCTYPE svg PUBLIC "-//W3C//DTD SVG 1.1//EN"
 "http://www.w3.org/Graphics/SVG/1.1/DTD/svg11.dtd">
<!-- Generated by graphviz version 14.0.2 (20251019.1705)
 -->
<!-- Pages: 1 -->
<svg width="210pt" height="232pt"
 viewBox="0.00 0.00 210.00 232.00" xmlns="http://www.w3.org/2000/svg" xmlns:xlink="http://www.w3.org/1999/xlink">
<g id="graph0" class="graph" transform="scale(1 1) rotate(0) translate(4 228)">
<polygon fill="white" stroke="none" points="-4,4 -4,-228 206.12,-228 206.12,4 -4,4"/>
<g id="clust2" class="cluster">
<title>cluster_associated</title>
</g>
<!-- AreaDestination -->
<g id="node1" class="node">
<title>AreaDestination</title>
<g id="a_node1"><a xlink:href="../classes/itsLocation__AreaDestination.md" xlink:title="&lt;TABLE&gt;">
<polygon fill="lightgray" stroke="none" points="112.88,-124.88 112.88,-141.12 201.12,-141.12 201.12,-124.88 112.88,-124.88"/>
<text xml:space="preserve" text-anchor="start" x="113.88" y="-128.72" font-family="Arial" font-size="12.00">AreaDestination</text>
<polygon fill="none" stroke="black" points="111.88,-123.88 111.88,-142.12 202.12,-142.12 202.12,-123.88 111.88,-123.88"/>
</a>
</g>
</g>
<!-- Destination -->
<g id="node2" class="node">
<title>Destination</title>
<g id="a_node2"><a xlink:href="../_counters/itsLocation__Destination.md" xlink:title="&lt;TABLE&gt;">
<polygon fill="lightgray" stroke="none" points="125.62,-197.88 125.62,-214.12 188.38,-214.12 188.38,-197.88 125.62,-197.88"/>
<text xml:space="preserve" text-anchor="start" x="126.62" y="-201.72" font-family="Arial" font-size="12.00">Destination</text>
<polygon fill="none" stroke="black" points="124.62,-196.88 124.62,-215.12 189.38,-215.12 189.38,-196.88 124.62,-196.88"/>
</a>
</g>
</g>
<!-- AreaDestination&#45;&gt;Destination -->
<g id="edge1" class="edge">
<title>AreaDestination&#45;&gt;Destination</title>
<path fill="none" stroke="black" d="M157,-150.71C157,-158.47 157,-167.92 157,-176.74"/>
<polygon fill="none" stroke="black" points="153.5,-176.66 157,-186.66 160.5,-176.66 153.5,-176.66"/>
</g>
<!-- Invis -->
<!-- AreaDestination&#45;&gt;Invis -->
<!-- AreaLocation -->
<g id="node4" class="node">
<title>AreaLocation</title>
<g id="a_node4"><a xlink:href="../_counters/itsLocation__AreaLocation.md" xlink:title="&lt;TABLE&gt;">
<polygon fill="lightgray" stroke="none" points="17.38,-25.88 17.38,-42.12 90.62,-42.12 90.62,-25.88 17.38,-25.88"/>
<text xml:space="preserve" text-anchor="start" x="18.38" y="-29.73" font-family="Arial" font-size="12.00">AreaLocation</text>
<polygon fill="none" stroke="black" points="16.38,-24.88 16.38,-43.12 91.62,-43.12 91.62,-24.88 16.38,-24.88"/>
</a>
</g>
</g>
<!-- AreaDestination&#45;&gt;AreaLocation -->
<g id="edge4" class="edge">
<title>AreaDestination&#45;&gt;AreaLocation</title>
<path fill="none" stroke="black" d="M139.06,-115.1C122.74,-99.73 98.45,-76.86 80.01,-59.49"/>
<polygon fill="black" stroke="black" points="82.52,-57.05 72.84,-52.74 77.72,-62.14 82.52,-57.05"/>
<text xml:space="preserve" text-anchor="middle" x="151.88" y="-86.55" font-family="Arial" font-size="11.00"> areaLocation </text>
<text xml:space="preserve" text-anchor="middle" x="151.88" y="-73.05" font-family="Arial" font-size="11.00"> «exactly 1» &#160;</text>
</g>
<!-- Invis&#45;&gt;AreaLocation -->
</g>
</svg>
