<?xml version="1.0" encoding="UTF-8" standalone="no"?>
<!DOCTYPE svg PUBLIC "-//W3C//DTD SVG 1.1//EN"
 "http://www.w3.org/Graphics/SVG/1.1/DTD/svg11.dtd">
<!-- Generated by graphviz version 14.0.2 (20251019.1705)
 -->
<!-- Pages: 1 -->
<svg width="196pt" height="232pt"
 viewBox="0.00 0.00 196.00 232.00" xmlns="http://www.w3.org/2000/svg" xmlns:xlink="http://www.w3.org/1999/xlink">
<g id="graph0" class="graph" transform="scale(1 1) rotate(0) translate(4 228)">
<polygon fill="white" stroke="none" points="-4,4 -4,-228 191.62,-228 191.62,4 -4,4"/>
<g id="clust2" class="cluster">
<title>cluster_associated</title>
</g>
<!-- Itinerary -->
<g id="node1" class="node">
<title>Itinerary</title>
<g id="a_node1"><a xlink:href="../classes/itsLocation__Itinerary.md" xlink:title="&lt;TABLE&gt;">
<polygon fill="lightgray" stroke="none" points="112.62,-124.88 112.62,-141.12 157.38,-141.12 157.38,-124.88 112.62,-124.88"/>
<text xml:space="preserve" text-anchor="start" x="113.62" y="-128.72" font-family="Arial" font-size="12.00">Itinerary</text>
<polygon fill="none" stroke="black" points="111.62,-123.88 111.62,-142.12 158.38,-142.12 158.38,-123.88 111.62,-123.88"/>
</a>
</g>
</g>
<!-- LocationReference -->
<g id="node2" class="node">
<title>LocationReference</title>
<g id="a_node2"><a xlink:href="../_counters/itsLocation__LocationReference.md" xlink:title="&lt;TABLE&gt;">
<polygon fill="lightgray" stroke="none" points="83.38,-197.88 83.38,-214.12 186.62,-214.12 186.62,-197.88 83.38,-197.88"/>
<text xml:space="preserve" text-anchor="start" x="84.38" y="-201.72" font-family="Arial" font-size="12.00">LocationReference</text>
<polygon fill="none" stroke="black" points="82.38,-196.88 82.38,-215.12 187.62,-215.12 187.62,-196.88 82.38,-196.88"/>
</a>
</g>
</g>
<!-- Itinerary&#45;&gt;LocationReference -->
<g id="edge1" class="edge">
<title>Itinerary&#45;&gt;LocationReference</title>
<path fill="none" stroke="black" d="M135,-150.71C135,-158.47 135,-167.92 135,-176.74"/>
<polygon fill="none" stroke="black" points="131.5,-176.66 135,-186.66 138.5,-176.66 131.5,-176.66"/>
</g>
<!-- Invis -->
<!-- Itinerary&#45;&gt;Invis -->
<!-- Destination -->
<g id="node4" class="node">
<title>Destination</title>
<g id="a_node4"><a xlink:href="../_counters/itsLocation__Destination.md" xlink:title="&lt;TABLE&gt;">
<polygon fill="lightgray" stroke="none" points="16.62,-25.88 16.62,-42.12 79.38,-42.12 79.38,-25.88 16.62,-25.88"/>
<text xml:space="preserve" text-anchor="start" x="17.62" y="-29.73" font-family="Arial" font-size="12.00">Destination</text>
<polygon fill="none" stroke="black" points="15.62,-24.88 15.62,-43.12 80.38,-43.12 80.38,-24.88 15.62,-24.88"/>
</a>
</g>
</g>
<!-- Itinerary&#45;&gt;Destination -->
<g id="edge4" class="edge">
<title>Itinerary&#45;&gt;Destination</title>
<path fill="none" stroke="black" d="M119.85,-115.1C106.25,-99.94 86.1,-77.48 70.6,-60.2"/>
<polygon fill="black" stroke="black" points="73.27,-57.94 63.99,-52.83 68.06,-62.61 73.27,-57.94"/>
<text xml:space="preserve" text-anchor="middle" x="144.23" y="-86.55" font-family="Arial" font-size="11.00"> routeDestination </text>
<text xml:space="preserve" text-anchor="middle" x="144.23" y="-73.05" font-family="Arial" font-size="11.00"> «only» &#160;</text>
</g>
<!-- Invis&#45;&gt;Destination -->
</g>
</svg>
