<?xml version="1.0" encoding="UTF-8" standalone="no"?>
<!DOCTYPE svg PUBLIC "-//W3C//DTD SVG 1.1//EN"
 "http://www.w3.org/Graphics/SVG/1.1/DTD/svg11.dtd">
<!-- Generated by graphviz version 14.0.2 (20251019.1705)
 -->
<!-- Pages: 1 -->
<svg width="360pt" height="305pt"
 viewBox="0.00 0.00 360.00 305.00" xmlns="http://www.w3.org/2000/svg" xmlns:xlink="http://www.w3.org/1999/xlink">
<g id="graph0" class="graph" transform="scale(1 1) rotate(0) translate(4 301)">
<polygon fill="white" stroke="none" points="-4,4 -4,-301 356.24,-301 356.24,4 -4,4"/>
<g id="clust2" class="cluster">
<title>cluster_associated</title>
</g>
<!-- NetworkLocation -->
<g id="node1" class="node">
<title>NetworkLocation</title>
<g id="a_node1"><a xlink:href="../classes/itsLocation__NetworkLocation.md" xlink:title="&lt;TABLE&gt;">
<polygon fill="lightgray" stroke="none" points="233,-197.88 233,-214.12 325,-214.12 325,-197.88 233,-197.88"/>
<text xml:space="preserve" text-anchor="start" x="234" y="-201.72" font-family="Arial" font-size="12.00">NetworkLocation</text>
<polygon fill="none" stroke="black" points="232,-196.88 232,-215.12 326,-215.12 326,-196.88 232,-196.88"/>
</a>
</g>
</g>
<!-- Location -->
<g id="node2" class="node">
<title>Location</title>
<g id="a_node2"><a xlink:href="../_counters/itsLocation__Location.md" xlink:title="&lt;TABLE&gt;">
<polygon fill="lightgray" stroke="none" points="255.12,-270.88 255.12,-287.12 302.88,-287.12 302.88,-270.88 255.12,-270.88"/>
<text xml:space="preserve" text-anchor="start" x="256.12" y="-274.73" font-family="Arial" font-size="12.00">Location</text>
<polygon fill="none" stroke="black" points="254.12,-269.88 254.12,-288.12 303.88,-288.12 303.88,-269.88 254.12,-269.88"/>
</a>
</g>
</g>
<!-- NetworkLocation&#45;&gt;Location -->
<g id="edge1" class="edge">
<title>NetworkLocation&#45;&gt;Location</title>
<path fill="none" stroke="black" d="M279,-223.71C279,-231.47 279,-240.92 279,-249.74"/>
<polygon fill="none" stroke="black" points="275.5,-249.66 279,-259.66 282.5,-249.66 275.5,-249.66"/>
</g>
<!-- Invis -->
<!-- NetworkLocation&#45;&gt;Invis -->
<!-- Destination -->
<g id="node4" class="node">
<title>Destination</title>
<g id="a_node4"><a xlink:href="../_counters/itsLocation__Destination.md" xlink:title="&lt;TABLE&gt;">
<polygon fill="lightgray" stroke="none" points="137.62,-98.88 137.62,-115.12 200.38,-115.12 200.38,-98.88 137.62,-98.88"/>
<text xml:space="preserve" text-anchor="start" x="138.62" y="-102.72" font-family="Arial" font-size="12.00">Destination</text>
<polygon fill="none" stroke="black" points="136.62,-97.88 136.62,-116.12 201.38,-116.12 201.38,-97.88 136.62,-97.88"/>
</a>
</g>
</g>
<!-- NetworkLocation&#45;&gt;Destination -->
<g id="edge6" class="edge">
<title>NetworkLocation&#45;&gt;Destination</title>
<path fill="none" stroke="black" d="M232.06,-188.93C221.79,-183.95 211.52,-177.7 203.25,-170 192.98,-160.44 185.06,-147.09 179.44,-135.23"/>
<polygon fill="black" stroke="black" points="182.74,-134.04 175.53,-126.28 176.33,-136.85 182.74,-134.04"/>
<text xml:space="preserve" text-anchor="middle" x="232.12" y="-159.55" font-family="Arial" font-size="11.00"> destination </text>
<text xml:space="preserve" text-anchor="middle" x="232.12" y="-146.05" font-family="Arial" font-size="11.00"> «max 1» &#160;</text>
</g>
<!-- SupplementaryPositionalDescription -->
<g id="node5" class="node">
<title>SupplementaryPositionalDescription</title>
<g id="a_node5"><a xlink:href="../_counters/itsLocation__SupplementaryPositionalDescription.md" xlink:title="&lt;TABLE&gt;">
<polygon fill="lightgray" stroke="none" points="17.5,-25.88 17.5,-42.12 214.5,-42.12 214.5,-25.88 17.5,-25.88"/>
<text xml:space="preserve" text-anchor="start" x="18.5" y="-29.73" font-family="Arial" font-size="12.00">SupplementaryPositionalDescription</text>
<polygon fill="none" stroke="black" points="16.5,-24.88 16.5,-43.12 215.5,-43.12 215.5,-24.88 16.5,-24.88"/>
</a>
</g>
</g>
<!-- NetworkLocation&#45;&gt;SupplementaryPositionalDescription -->
<g id="edge5" class="edge">
<title>NetworkLocation&#45;&gt;SupplementaryPositionalDescription</title>
<path fill="none" stroke="black" d="M276.33,-188.1C273.77,-175.12 269.07,-157.11 261,-143 238.89,-104.36 196.77,-75.38 163.6,-57.23"/>
<polygon fill="black" stroke="black" points="165.44,-54.24 154.97,-52.65 162.16,-60.42 165.44,-54.24"/>
<text xml:space="preserve" text-anchor="middle" x="299.74" y="-110.05" font-family="Arial" font-size="11.00"> positionalDescription </text>
<text xml:space="preserve" text-anchor="middle" x="299.74" y="-96.55" font-family="Arial" font-size="11.00"> «max 1, only» &#160;</text>
</g>
<!-- Invis&#45;&gt;Destination -->
<!-- Destination&#45;&gt;SupplementaryPositionalDescription -->
</g>
</svg>
