<?xml version="1.0" encoding="UTF-8" standalone="no"?>
<!DOCTYPE svg PUBLIC "-//W3C//DTD SVG 1.1//EN"
 "http://www.w3.org/Graphics/SVG/1.1/DTD/svg11.dtd">
<!-- Generated by graphviz version 14.1.3 (20260303.0454)
 -->
<!-- Pages: 1 -->
<svg width="243pt" height="132pt"
 viewBox="0.00 0.00 243.00 132.00" xmlns="http://www.w3.org/2000/svg" xmlns:xlink="http://www.w3.org/1999/xlink">
<g id="graph0" class="graph" transform="scale(1 1) rotate(0) translate(4 128)">
<polygon fill="white" stroke="none" points="-4,4 -4,-128 238.75,-128 238.75,4 -4,4"/>
<g id="clust3" class="cluster">
<title>cluster_associated</title>
</g>
<!-- LinearGeometry -->
<g id="node1" class="node">
<title>LinearGeometry</title>
<g id="a_node1"><a xlink:href="../LinearGeometry" xlink:title="&lt;TABLE&gt;">
<polygon fill="lightgray" stroke="none" points="1,-97.88 1,-114.12 88.5,-114.12 88.5,-97.88 1,-97.88"/>
<text xml:space="preserve" text-anchor="start" x="2" y="-101.88" font-family="Arial" font-size="12.00">LinearGeometry</text>
<polygon fill="none" stroke="black" points="0,-96.88 0,-115.12 89.5,-115.12 89.5,-96.88 0,-96.88"/>
</a>
</g>
</g>
<!-- sf_LineString -->
<g id="node2" class="node">
<title>sf_LineString</title>
<g id="a_node2"><a xlink:href="https://w3id.org/citydata/imported/sf/latest/LineString" xlink:title="&lt;TABLE&gt;">
<polygon fill="lightgray" stroke="none" points="108.38,-97.88 108.38,-114.12 177.12,-114.12 177.12,-97.88 108.38,-97.88"/>
<text xml:space="preserve" text-anchor="start" x="109.38" y="-101.88" font-family="Arial" font-size="12.00">sf:LineString</text>
<polygon fill="none" stroke="black" points="107.38,-96.88 107.38,-115.12 178.12,-115.12 178.12,-96.88 107.38,-96.88"/>
</a>
</g>
</g>
<!-- LinearByLineString -->
<g id="node3" class="node">
<title>LinearByLineString</title>
<g id="a_node3"><a xlink:href="../LinearByLineString" xlink:title="&lt;TABLE&gt;">
<polygon fill="lightgray" stroke="none" points="41.38,-25.88 41.38,-42.12 146.12,-42.12 146.12,-25.88 41.38,-25.88"/>
<text xml:space="preserve" text-anchor="start" x="42.38" y="-29.88" font-family="Arial" font-size="12.00">LinearByLineString</text>
<polygon fill="none" stroke="black" points="40.38,-24.88 40.38,-43.12 147.12,-43.12 147.12,-24.88 40.38,-24.88"/>
</a>
</g>
</g>
<!-- LinearByLineString&#45;&gt;LinearGeometry -->
<g id="edge1" class="edge">
<title>LinearByLineString&#45;&gt;LinearGeometry</title>
<path fill="none" stroke="black" d="M82,-51.79C76.36,-59.85 69.46,-69.69 63.15,-78.71"/>
<polygon fill="none" stroke="black" points="60.35,-76.62 57.48,-86.82 66.08,-80.63 60.35,-76.62"/>
</g>
<!-- LinearByLineString&#45;&gt;sf_LineString -->
<g id="edge2" class="edge">
<title>LinearByLineString&#45;&gt;sf_LineString</title>
<path fill="none" stroke="black" d="M105.5,-51.79C111.14,-59.85 118.04,-69.69 124.35,-78.71"/>
<polygon fill="none" stroke="black" points="121.42,-80.63 130.02,-86.82 127.15,-76.62 121.42,-80.63"/>
</g>
<!-- Invis -->
</g>
</svg>
