<?xml version="1.0" encoding="UTF-8" standalone="no"?>
<!DOCTYPE svg PUBLIC "-//W3C//DTD SVG 1.1//EN"
 "http://www.w3.org/Graphics/SVG/1.1/DTD/svg11.dtd">
<!-- Generated by graphviz version 14.1.3 (20260303.0454)
 -->
<!-- Pages: 1 -->
<svg width="207pt" height="279pt"
 viewBox="0.00 0.00 207.00 279.00" xmlns="http://www.w3.org/2000/svg" xmlns:xlink="http://www.w3.org/1999/xlink">
<g id="graph0" class="graph" transform="scale(1 1) rotate(0) translate(4 275)">
<polygon fill="white" stroke="none" points="-4,4 -4,-275 203.48,-275 203.48,4 -4,4"/>
<g id="clust3" class="cluster">
<title>cluster_associated</title>
</g>
<!-- LinearGeometry -->
<g id="node1" class="node">
<title>LinearGeometry</title>
<g id="a_node1"><a xlink:href="../LinearGeometry" xlink:title="&lt;TABLE&gt;">
<polygon fill="lightgray" stroke="none" points="42.25,-244.88 42.25,-261.12 129.75,-261.12 129.75,-244.88 42.25,-244.88"/>
<text xml:space="preserve" text-anchor="start" x="43.25" y="-248.88" font-family="Arial" font-size="12.00">LinearGeometry</text>
<polygon fill="none" stroke="black" points="41.25,-243.88 41.25,-262.12 130.75,-262.12 130.75,-243.88 41.25,-243.88"/>
</a>
</g>
</g>
<!-- LinearByPointGeometries -->
<g id="node2" class="node">
<title>LinearByPointGeometries</title>
<g id="a_node2"><a xlink:href="../LinearByPointGeometries" xlink:title="&lt;TABLE&gt;">
<polygon fill="lightgray" stroke="none" points="16.38,-171.88 16.38,-188.12 155.62,-188.12 155.62,-171.88 16.38,-171.88"/>
<text xml:space="preserve" text-anchor="start" x="17.38" y="-175.88" font-family="Arial" font-size="12.00">LinearByPointGeometries</text>
<polygon fill="none" stroke="black" points="15.38,-170.88 15.38,-189.12 156.62,-189.12 156.62,-170.88 15.38,-170.88"/>
</a>
</g>
</g>
<!-- LinearByPointGeometries&#45;&gt;LinearGeometry -->
<g id="edge1" class="edge">
<title>LinearByPointGeometries&#45;&gt;LinearGeometry</title>
<path fill="none" stroke="black" d="M86,-197.71C86,-205.47 86,-214.92 86,-223.74"/>
<polygon fill="none" stroke="black" points="82.5,-223.66 86,-233.66 89.5,-223.66 82.5,-223.66"/>
</g>
<!-- Invis -->
<!-- LinearByPointGeometries&#45;&gt;Invis -->
<!-- PointGeometryList -->
<g id="node4" class="node">
<title>PointGeometryList</title>
<g id="a_node4"><a xlink:href="../PointGeometryList" xlink:title="&lt;TABLE&gt;">
<polygon fill="lightgray" stroke="none" points="16.88,-25.88 16.88,-42.12 117.12,-42.12 117.12,-25.88 16.88,-25.88"/>
<text xml:space="preserve" text-anchor="start" x="17.88" y="-29.88" font-family="Arial" font-size="12.00">PointGeometryList</text>
<polygon fill="none" stroke="black" points="15.88,-24.88 15.88,-43.12 118.12,-43.12 118.12,-24.88 15.88,-24.88"/>
</a>
</g>
</g>
<!-- LinearByPointGeometries&#45;&gt;PointGeometryList -->
<g id="edge4" class="edge">
<title>LinearByPointGeometries&#45;&gt;PointGeometryList</title>
<path fill="none" stroke="black" d="M89.54,-162.21C92.78,-143.98 96.33,-114.11 91,-89 89.07,-79.93 85.52,-70.53 81.72,-62.17"/>
<polygon fill="black" stroke="black" points="84.9,-60.7 77.37,-53.25 78.61,-63.77 84.9,-60.7"/>
<text xml:space="preserve" text-anchor="middle" x="146.61" y="-103.3" font-family="Arial" font-size="11.00">hasPointGeometryList</text>
</g>
<!-- Invis&#45;&gt;PointGeometryList -->
</g>
</svg>
