<?xml version="1.0" encoding="UTF-8" standalone="no"?>
<!DOCTYPE svg PUBLIC "-//W3C//DTD SVG 1.1//EN"
 "http://www.w3.org/Graphics/SVG/1.1/DTD/svg11.dtd">
<!-- Generated by graphviz version 14.1.3 (20260303.0454)
 -->
<!-- Pages: 1 -->
<svg width="262pt" height="132pt"
 viewBox="0.00 0.00 262.00 132.00" xmlns="http://www.w3.org/2000/svg" xmlns:xlink="http://www.w3.org/1999/xlink">
<g id="graph0" class="graph" transform="scale(1 1) rotate(0) translate(4 128)">
<polygon fill="white" stroke="none" points="-4,4 -4,-128 257.75,-128 257.75,4 -4,4"/>
<g id="clust3" class="cluster">
<title>cluster_associated</title>
</g>
<!-- LinearGeometry -->
<g id="node1" class="node">
<title>LinearGeometry</title>
<g id="a_node1"><a xlink:href="../LinearGeometry" xlink:title="&lt;TABLE&gt;">
<polygon fill="lightgray" stroke="none" points="1,-97.88 1,-114.12 88.5,-114.12 88.5,-97.88 1,-97.88"/>
<text xml:space="preserve" text-anchor="start" x="2" y="-101.88" font-family="Arial" font-size="12.00">LinearGeometry</text>
<polygon fill="none" stroke="black" points="0,-96.88 0,-115.12 89.5,-115.12 89.5,-96.88 0,-96.88"/>
</a>
</g>
</g>
<!-- sf_MultiLineString -->
<g id="node2" class="node">
<title>sf_MultiLineString</title>
<g id="a_node2"><a xlink:href="https://w3id.org/citydata/imported/sf/latest/MultiLineString" xlink:title="&lt;TABLE&gt;">
<polygon fill="lightgray" stroke="none" points="108.62,-97.88 108.62,-114.12 202.88,-114.12 202.88,-97.88 108.62,-97.88"/>
<text xml:space="preserve" text-anchor="start" x="109.62" y="-101.88" font-family="Arial" font-size="12.00">sf:MultiLineString</text>
<polygon fill="none" stroke="black" points="107.62,-96.88 107.62,-115.12 203.88,-115.12 203.88,-96.88 107.62,-96.88"/>
</a>
</g>
</g>
<!-- LinearByMultiLineString -->
<g id="node3" class="node">
<title>LinearByMultiLineString</title>
<g id="a_node3"><a xlink:href="../LinearByMultiLineString" xlink:title="&lt;TABLE&gt;">
<polygon fill="lightgray" stroke="none" points="34.62,-25.88 34.62,-42.12 164.88,-42.12 164.88,-25.88 34.62,-25.88"/>
<text xml:space="preserve" text-anchor="start" x="35.62" y="-29.88" font-family="Arial" font-size="12.00">LinearByMultiLineString</text>
<polygon fill="none" stroke="black" points="33.62,-24.88 33.62,-43.12 165.88,-43.12 165.88,-24.88 33.62,-24.88"/>
</a>
</g>
</g>
<!-- LinearByMultiLineString&#45;&gt;LinearGeometry -->
<g id="edge1" class="edge">
<title>LinearByMultiLineString&#45;&gt;LinearGeometry</title>
<path fill="none" stroke="black" d="M86.56,-51.79C80.09,-60.02 72.16,-70.11 64.95,-79.29"/>
<polygon fill="none" stroke="black" points="62.43,-76.84 59,-86.86 67.93,-81.16 62.43,-76.84"/>
</g>
<!-- LinearByMultiLineString&#45;&gt;sf_MultiLineString -->
<g id="edge2" class="edge">
<title>LinearByMultiLineString&#45;&gt;sf_MultiLineString</title>
<path fill="none" stroke="black" d="M113.18,-51.79C119.77,-60.02 127.84,-70.11 135.18,-79.29"/>
<polygon fill="none" stroke="black" points="132.27,-81.25 141.25,-86.87 137.73,-76.88 132.27,-81.25"/>
</g>
<!-- Invis -->
</g>
</svg>
