<?xml version="1.0" encoding="UTF-8" standalone="no"?>
<!DOCTYPE svg PUBLIC "-//W3C//DTD SVG 1.1//EN"
 "http://www.w3.org/Graphics/SVG/1.1/DTD/svg11.dtd">
<!-- Generated by graphviz version 14.0.2 (20251019.1705)
 -->
<!-- Pages: 1 -->
<svg width="455pt" height="477pt"
 viewBox="0.00 0.00 455.00 477.00" xmlns="http://www.w3.org/2000/svg" xmlns:xlink="http://www.w3.org/1999/xlink">
<g id="graph0" class="graph" transform="scale(1 1) rotate(0) translate(4 473)">
<polygon fill="white" stroke="none" points="-4,4 -4,-473 450.5,-473 450.5,4 -4,4"/>
<g id="clust2" class="cluster">
<title>cluster_associated</title>
</g>
<!-- PoiWithAccessPointLocationReference -->
<g id="node1" class="node">
<title>PoiWithAccessPointLocationReference</title>
<g id="a_node1"><a xlink:href="../classes/OpenLR__PoiWithAccessPointLocationReference.md" xlink:title="&lt;TABLE&gt;">
<polygon fill="lightgray" stroke="none" points="167,-378 167,-394.25 379,-394.25 379,-378 167,-378"/>
<text xml:space="preserve" text-anchor="start" x="168" y="-381.85" font-family="Arial" font-size="12.00">PoiWithAccessPointLocationReference</text>
<text xml:space="preserve" text-anchor="start" x="168" y="-365.6" font-family="Arial" font-size="12.00">positiveOffset: xsd::integer «exactly 1»</text>
<polygon fill="none" stroke="black" points="166,-360.75 166,-395.25 380,-395.25 380,-360.75 166,-360.75"/>
</a>
</g>
</g>
<!-- LocationReference -->
<g id="node2" class="node">
<title>LocationReference</title>
<g id="a_node2"><a xlink:href="../_counters/OpenLR__LocationReference.md" xlink:title="&lt;TABLE&gt;">
<polygon fill="lightgray" stroke="none" points="221.38,-442.88 221.38,-459.12 324.62,-459.12 324.62,-442.88 221.38,-442.88"/>
<text xml:space="preserve" text-anchor="start" x="222.38" y="-446.73" font-family="Arial" font-size="12.00">LocationReference</text>
<polygon fill="none" stroke="black" points="220.38,-441.88 220.38,-460.12 325.62,-460.12 325.62,-441.88 220.38,-441.88"/>
</a>
</g>
</g>
<!-- PoiWithAccessPointLocationReference&#45;&gt;LocationReference -->
<g id="edge1" class="edge">
<title>PoiWithAccessPointLocationReference&#45;&gt;LocationReference</title>
<path fill="none" stroke="black" d="M273,-395.71C273,-403.47 273,-412.92 273,-421.74"/>
<polygon fill="none" stroke="black" points="269.5,-421.66 273,-431.66 276.5,-421.66 269.5,-421.66"/>
</g>
<!-- Invis -->
<!-- PoiWithAccessPointLocationReference&#45;&gt;Invis -->
<!-- Coordinates -->
<g id="node4" class="node">
<title>Coordinates</title>
<g id="a_node4"><a xlink:href="../_counters/OpenLR__Coordinates.md" xlink:title="&lt;TABLE&gt;">
<polygon fill="lightgray" stroke="none" points="37.38,-270.88 37.38,-287.12 104.62,-287.12 104.62,-270.88 37.38,-270.88"/>
<text xml:space="preserve" text-anchor="start" x="38.38" y="-274.73" font-family="Arial" font-size="12.00">Coordinates</text>
<polygon fill="none" stroke="black" points="36.38,-269.88 36.38,-288.12 105.62,-288.12 105.62,-269.88 36.38,-269.88"/>
</a>
</g>
</g>
<!-- PoiWithAccessPointLocationReference&#45;&gt;Coordinates -->
<g id="edge8" class="edge">
<title>PoiWithAccessPointLocationReference&#45;&gt;Coordinates</title>
<path fill="none" stroke="black" d="M167.73,-360.05C120.25,-352.15 74.27,-344.05 72.5,-342 64.59,-332.82 63.35,-319.74 64.43,-307.95"/>
<polygon fill="black" stroke="black" points="67.86,-308.7 65.91,-298.29 60.94,-307.65 67.86,-308.7"/>
<text xml:space="preserve" text-anchor="middle" x="122.75" y="-331.55" font-family="Arial" font-size="11.00"> hasPOICoordinates </text>
<text xml:space="preserve" text-anchor="middle" x="122.75" y="-318.05" font-family="Arial" font-size="11.00"> «exactly 1» &#160;</text>
</g>
<!-- LocationReferencePoint -->
<g id="node5" class="node">
<title>LocationReferencePoint</title>
<g id="a_node5"><a xlink:href="../_counters/OpenLR__LocationReferencePoint.md" xlink:title="&lt;TABLE&gt;">
<polygon fill="lightgray" stroke="none" points="17.5,-171.88 17.5,-188.12 148.5,-188.12 148.5,-171.88 17.5,-171.88"/>
<text xml:space="preserve" text-anchor="start" x="18.5" y="-175.72" font-family="Arial" font-size="12.00">LocationReferencePoint</text>
<polygon fill="none" stroke="black" points="16.5,-170.88 16.5,-189.12 149.5,-189.12 149.5,-170.88 16.5,-170.88"/>
</a>
</g>
</g>
<!-- PoiWithAccessPointLocationReference&#45;&gt;LocationReferencePoint -->
<g id="edge7" class="edge">
<title>PoiWithAccessPointLocationReference&#45;&gt;LocationReferencePoint</title>
<path fill="none" stroke="black" d="M256.8,-360.29C223.37,-325.8 146.59,-246.6 107.23,-205.99"/>
<polygon fill="black" stroke="black" points="109.96,-203.78 100.48,-199.03 104.93,-208.65 109.96,-203.78"/>
<text xml:space="preserve" text-anchor="middle" x="225.27" y="-282.05" font-family="Arial" font-size="11.00"> hasLRP </text>
<text xml:space="preserve" text-anchor="middle" x="225.27" y="-268.55" font-family="Arial" font-size="11.00"> «exactly 2» &#160;</text>
</g>
<!-- Orientation -->
<g id="node6" class="node">
<title>Orientation</title>
<g id="a_node6"><a xlink:href="../_counters/OpenLR__Orientation.md" xlink:title="&lt;TABLE&gt;">
<polygon fill="lightgray" stroke="none" points="84.75,-98.88 84.75,-115.12 145.25,-115.12 145.25,-98.88 84.75,-98.88"/>
<text xml:space="preserve" text-anchor="start" x="85.75" y="-102.72" font-family="Arial" font-size="12.00">Orientation</text>
<polygon fill="none" stroke="black" points="83.75,-97.88 83.75,-116.12 146.25,-116.12 146.25,-97.88 83.75,-97.88"/>
</a>
</g>
</g>
<!-- PoiWithAccessPointLocationReference&#45;&gt;Orientation -->
<g id="edge9" class="edge">
<title>PoiWithAccessPointLocationReference&#45;&gt;Orientation</title>
<path fill="none" stroke="black" d="M274.15,-360.36C275.09,-337.01 274.3,-293.7 259,-261 233.53,-206.56 181.19,-158.81 147.12,-131.7"/>
<polygon fill="black" stroke="black" points="149.69,-129.26 139.65,-125.87 145.38,-134.78 149.69,-129.26"/>
<text xml:space="preserve" text-anchor="middle" x="286.67" y="-232.55" font-family="Arial" font-size="11.00"> hasOrientation </text>
<text xml:space="preserve" text-anchor="middle" x="286.67" y="-219.05" font-family="Arial" font-size="11.00"> «max 1» &#160;</text>
</g>
<!-- SideOfRoad -->
<g id="node7" class="node">
<title>SideOfRoad</title>
<g id="a_node7"><a xlink:href="../_counters/OpenLR__SideOfRoad.md" xlink:title="&lt;TABLE&gt;">
<polygon fill="lightgray" stroke="none" points="81,-25.88 81,-42.12 149,-42.12 149,-25.88 81,-25.88"/>
<text xml:space="preserve" text-anchor="start" x="82" y="-29.73" font-family="Arial" font-size="12.00">SideOfRoad</text>
<polygon fill="none" stroke="black" points="80,-24.88 80,-43.12 150,-43.12 150,-24.88 80,-24.88"/>
</a>
</g>
</g>
<!-- PoiWithAccessPointLocationReference&#45;&gt;SideOfRoad -->
<g id="edge10" class="edge">
<title>PoiWithAccessPointLocationReference&#45;&gt;SideOfRoad</title>
<path fill="none" stroke="black" d="M304.83,-360.01C331.07,-343.44 364,-315.56 364,-280 364,-280 364,-280 364,-106 364,-64.32 233.36,-45.77 161.34,-38.71"/>
<polygon fill="black" stroke="black" points="161.67,-35.23 151.39,-37.78 161.02,-42.2 161.67,-35.23"/>
<text xml:space="preserve" text-anchor="middle" x="405.25" y="-183.05" font-family="Arial" font-size="11.00"> hasSideOfRoad </text>
<text xml:space="preserve" text-anchor="middle" x="405.25" y="-169.55" font-family="Arial" font-size="11.00"> «max 1» &#160;</text>
</g>
<!-- Invis&#45;&gt;Coordinates -->
<!-- Coordinates&#45;&gt;LocationReferencePoint -->
<!-- LocationReferencePoint&#45;&gt;Orientation -->
<!-- Orientation&#45;&gt;SideOfRoad -->
</g>
</svg>
