<?xml version="1.0" encoding="UTF-8" standalone="no"?>
<!DOCTYPE svg PUBLIC "-//W3C//DTD SVG 1.1//EN"
 "http://www.w3.org/Graphics/SVG/1.1/DTD/svg11.dtd">
<!-- Generated by graphviz version 14.0.2 (20251019.1705)
 -->
<!-- Pages: 1 -->
<svg width="302pt" height="139pt"
 viewBox="0.00 0.00 302.00 139.00" xmlns="http://www.w3.org/2000/svg" xmlns:xlink="http://www.w3.org/1999/xlink">
<g id="graph0" class="graph" transform="scale(1 1) rotate(0) translate(4 135.38)">
<polygon fill="white" stroke="none" points="-4,4 -4,-135.38 298.25,-135.38 298.25,4 -4,4"/>
<g id="clust2" class="cluster">
<title>cluster_associated</title>
</g>
<!-- GridLocationReference -->
<g id="node1" class="node">
<title>GridLocationReference</title>
<g id="a_node1"><a xlink:href="../classes/OpenLR__GridLocationReference.md" xlink:title="&lt;TABLE&gt;">
<polygon fill="lightgray" stroke="none" points="1,-42.12 1,-58.38 205.5,-58.38 205.5,-42.12 1,-42.12"/>
<text xml:space="preserve" text-anchor="start" x="41.38" y="-45.98" font-family="Arial" font-size="12.00">GridLocationReference</text>
<text xml:space="preserve" text-anchor="start" x="2" y="-29.73" font-family="Arial" font-size="12.00">numColumns: xsd::integer «exactly 1»</text>
<text xml:space="preserve" text-anchor="start" x="2" y="-13.47" font-family="Arial" font-size="12.00">numRows: xsd::integer «exactly 1»</text>
<polygon fill="none" stroke="black" points="0,-8.62 0,-59.38 206.5,-59.38 206.5,-8.62 0,-8.62"/>
</a>
</g>
</g>
<!-- RectangleLocationReference -->
<g id="node2" class="node">
<title>RectangleLocationReference</title>
<g id="a_node2"><a xlink:href="../_counters/OpenLR__RectangleLocationReference.md" xlink:title="&lt;TABLE&gt;">
<polygon fill="lightgray" stroke="none" points="24.25,-105.25 24.25,-121.5 182.25,-121.5 182.25,-105.25 24.25,-105.25"/>
<text xml:space="preserve" text-anchor="start" x="25.25" y="-109.1" font-family="Arial" font-size="12.00">RectangleLocationReference</text>
<polygon fill="none" stroke="black" points="23.25,-104.25 23.25,-122.5 183.25,-122.5 183.25,-104.25 23.25,-104.25"/>
</a>
</g>
</g>
<!-- GridLocationReference&#45;&gt;RectangleLocationReference -->
<g id="edge1" class="edge">
<title>GridLocationReference&#45;&gt;RectangleLocationReference</title>
<path fill="none" stroke="black" d="M103.25,-59.1C103.25,-67.05 103.25,-75.97 103.25,-84.21"/>
<polygon fill="none" stroke="black" points="99.75,-84.07 103.25,-94.07 106.75,-84.07 99.75,-84.07"/>
</g>
<!-- Invis -->
</g>
</svg>
