<?xml version="1.0" encoding="UTF-8" standalone="no"?>
<!DOCTYPE svg PUBLIC "-//W3C//DTD SVG 1.1//EN"
 "http://www.w3.org/Graphics/SVG/1.1/DTD/svg11.dtd">
<!-- Generated by graphviz version 14.0.2 (20251019.1705)
 -->
<!-- Pages: 1 -->
<svg width="382pt" height="404pt"
 viewBox="0.00 0.00 382.00 404.00" xmlns="http://www.w3.org/2000/svg" xmlns:xlink="http://www.w3.org/1999/xlink">
<g id="graph0" class="graph" transform="scale(1 1) rotate(0) translate(4 400)">
<polygon fill="white" stroke="none" points="-4,4 -4,-400 377.62,-400 377.62,4 -4,4"/>
<g id="clust2" class="cluster">
<title>cluster_associated</title>
</g>
<!-- PointAlongLineLocationReference -->
<g id="node1" class="node">
<title>PointAlongLineLocationReference</title>
<g id="a_node1"><a xlink:href="../classes/OpenLR__PointAlongLineLocationReference.md" xlink:title="&lt;TABLE&gt;">
<polygon fill="lightgray" stroke="none" points="167.38,-305 167.38,-321.25 372.62,-321.25 372.62,-305 167.38,-305"/>
<text xml:space="preserve" text-anchor="start" x="178.12" y="-308.85" font-family="Arial" font-size="12.00">PointAlongLineLocationReference</text>
<text xml:space="preserve" text-anchor="start" x="168.38" y="-292.6" font-family="Arial" font-size="12.00">positiveOffset: xsd::integer «exactly 1»</text>
<polygon fill="none" stroke="black" points="166.38,-287.75 166.38,-322.25 373.62,-322.25 373.62,-287.75 166.38,-287.75"/>
</a>
</g>
</g>
<!-- LocationReference -->
<g id="node2" class="node">
<title>LocationReference</title>
<g id="a_node2"><a xlink:href="../_counters/OpenLR__LocationReference.md" xlink:title="&lt;TABLE&gt;">
<polygon fill="lightgray" stroke="none" points="218.38,-369.88 218.38,-386.12 321.62,-386.12 321.62,-369.88 218.38,-369.88"/>
<text xml:space="preserve" text-anchor="start" x="219.38" y="-373.73" font-family="Arial" font-size="12.00">LocationReference</text>
<polygon fill="none" stroke="black" points="217.38,-368.88 217.38,-387.12 322.62,-387.12 322.62,-368.88 217.38,-368.88"/>
</a>
</g>
</g>
<!-- PointAlongLineLocationReference&#45;&gt;LocationReference -->
<g id="edge1" class="edge">
<title>PointAlongLineLocationReference&#45;&gt;LocationReference</title>
<path fill="none" stroke="black" d="M270,-322.71C270,-330.47 270,-339.92 270,-348.74"/>
<polygon fill="none" stroke="black" points="266.5,-348.66 270,-358.66 273.5,-348.66 266.5,-348.66"/>
</g>
<!-- Invis -->
<!-- PointAlongLineLocationReference&#45;&gt;Invis -->
<!-- LocationReferencePoint -->
<g id="node4" class="node">
<title>LocationReferencePoint</title>
<g id="a_node4"><a xlink:href="../_counters/OpenLR__LocationReferencePoint.md" xlink:title="&lt;TABLE&gt;">
<polygon fill="lightgray" stroke="none" points="17.5,-197.88 17.5,-214.12 148.5,-214.12 148.5,-197.88 17.5,-197.88"/>
<text xml:space="preserve" text-anchor="start" x="18.5" y="-201.72" font-family="Arial" font-size="12.00">LocationReferencePoint</text>
<polygon fill="none" stroke="black" points="16.5,-196.88 16.5,-215.12 149.5,-215.12 149.5,-196.88 16.5,-196.88"/>
</a>
</g>
</g>
<!-- PointAlongLineLocationReference&#45;&gt;LocationReferencePoint -->
<g id="edge6" class="edge">
<title>PointAlongLineLocationReference&#45;&gt;LocationReferencePoint</title>
<path fill="none" stroke="black" d="M174.95,-287.03C143.43,-280.68 114.83,-273.85 109,-269 98.66,-260.4 92.37,-246.99 88.56,-234.83"/>
<polygon fill="black" stroke="black" points="91.96,-234 86.02,-225.23 85.2,-235.79 91.96,-234"/>
<text xml:space="preserve" text-anchor="middle" x="140.5" y="-258.55" font-family="Arial" font-size="11.00"> hasLRP </text>
<text xml:space="preserve" text-anchor="middle" x="140.5" y="-245.05" font-family="Arial" font-size="11.00"> «exactly 2» &#160;</text>
</g>
<!-- Orientation -->
<g id="node5" class="node">
<title>Orientation</title>
<g id="a_node5"><a xlink:href="../_counters/OpenLR__Orientation.md" xlink:title="&lt;TABLE&gt;">
<polygon fill="lightgray" stroke="none" points="84.75,-98.88 84.75,-115.12 145.25,-115.12 145.25,-98.88 84.75,-98.88"/>
<text xml:space="preserve" text-anchor="start" x="85.75" y="-102.72" font-family="Arial" font-size="12.00">Orientation</text>
<polygon fill="none" stroke="black" points="83.75,-97.88 83.75,-116.12 146.25,-116.12 146.25,-97.88 83.75,-97.88"/>
</a>
</g>
</g>
<!-- PointAlongLineLocationReference&#45;&gt;Orientation -->
<g id="edge7" class="edge">
<title>PointAlongLineLocationReference&#45;&gt;Orientation</title>
<path fill="none" stroke="black" d="M254.61,-287.19C240.19,-271.23 218.22,-246.43 200.25,-224 176.08,-193.83 149.99,-157.77 133.13,-133.95"/>
<polygon fill="black" stroke="black" points="136.21,-132.24 127.59,-126.08 130.49,-136.27 136.21,-132.24"/>
<text xml:space="preserve" text-anchor="middle" x="238.12" y="-209.05" font-family="Arial" font-size="11.00"> hasOrientation </text>
<text xml:space="preserve" text-anchor="middle" x="238.12" y="-195.55" font-family="Arial" font-size="11.00"> «max 1» &#160;</text>
</g>
<!-- SideOfRoad -->
<g id="node6" class="node">
<title>SideOfRoad</title>
<g id="a_node6"><a xlink:href="../_counters/OpenLR__SideOfRoad.md" xlink:title="&lt;TABLE&gt;">
<polygon fill="lightgray" stroke="none" points="81,-25.88 81,-42.12 149,-42.12 149,-25.88 81,-25.88"/>
<text xml:space="preserve" text-anchor="start" x="82" y="-29.73" font-family="Arial" font-size="12.00">SideOfRoad</text>
<polygon fill="none" stroke="black" points="80,-24.88 80,-43.12 150,-43.12 150,-24.88 80,-24.88"/>
</a>
</g>
</g>
<!-- PointAlongLineLocationReference&#45;&gt;SideOfRoad -->
<g id="edge8" class="edge">
<title>PointAlongLineLocationReference&#45;&gt;SideOfRoad</title>
<path fill="none" stroke="black" d="M275.38,-287.05C281.82,-263.7 290.08,-220.8 276,-188 251.18,-130.18 192.59,-83.91 153.37,-57.96"/>
<polygon fill="black" stroke="black" points="155.41,-55.11 145.11,-52.62 151.61,-60.99 155.41,-55.11"/>
<text xml:space="preserve" text-anchor="middle" x="308.04" y="-159.55" font-family="Arial" font-size="11.00"> hasSideOfRoad </text>
<text xml:space="preserve" text-anchor="middle" x="308.04" y="-146.05" font-family="Arial" font-size="11.00"> «max 1» &#160;</text>
</g>
<!-- Invis&#45;&gt;LocationReferencePoint -->
<!-- LocationReferencePoint&#45;&gt;Orientation -->
<!-- Orientation&#45;&gt;SideOfRoad -->
</g>
</svg>
