<?xml version="1.0" encoding="UTF-8" standalone="no"?>
<!DOCTYPE svg PUBLIC "-//W3C//DTD SVG 1.1//EN"
 "http://www.w3.org/Graphics/SVG/1.1/DTD/svg11.dtd">
<!-- Generated by graphviz version 14.0.2 (20251019.1705)
 -->
<!-- Pages: 1 -->
<svg width="171pt" height="132pt"
 viewBox="0.00 0.00 171.00 132.00" xmlns="http://www.w3.org/2000/svg" xmlns:xlink="http://www.w3.org/1999/xlink">
<g id="graph0" class="graph" transform="scale(1 1) rotate(0) translate(4 128)">
<polygon fill="white" stroke="none" points="-4,4 -4,-128 166.5,-128 166.5,4 -4,4"/>
<g id="clust2" class="cluster">
<title>cluster_associated</title>
</g>
<!-- SideOfRoad -->
<g id="node1" class="node">
<title>SideOfRoad</title>
<g id="a_node1"><a xlink:href="../classes/OpenLR__SideOfRoad.md" xlink:title="&lt;TABLE&gt;">
<polygon fill="lightgray" stroke="none" points="5.5,-25.88 5.5,-42.12 73.5,-42.12 73.5,-25.88 5.5,-25.88"/>
<text xml:space="preserve" text-anchor="start" x="6.5" y="-29.73" font-family="Arial" font-size="12.00">SideOfRoad</text>
<polygon fill="none" stroke="black" points="4.5,-24.88 4.5,-43.12 74.5,-43.12 74.5,-24.88 4.5,-24.88"/>
</a>
</g>
</g>
<!-- OpenLRThing -->
<g id="node2" class="node">
<title>OpenLRThing</title>
<g id="a_node2"><a xlink:href="../_counters/OpenLR__OpenLRThing.md" xlink:title="&lt;TABLE&gt;">
<polygon fill="lightgray" stroke="none" points="1,-97.88 1,-114.12 78,-114.12 78,-97.88 1,-97.88"/>
<text xml:space="preserve" text-anchor="start" x="2" y="-101.72" font-family="Arial" font-size="12.00">OpenLRThing</text>
<polygon fill="none" stroke="black" points="0,-96.88 0,-115.12 79,-115.12 79,-96.88 0,-96.88"/>
</a>
</g>
</g>
<!-- SideOfRoad&#45;&gt;OpenLRThing -->
<g id="edge1" class="edge">
<title>SideOfRoad&#45;&gt;OpenLRThing</title>
<path fill="none" stroke="black" d="M39.5,-51.79C39.5,-59.25 39.5,-68.24 39.5,-76.69"/>
<polygon fill="none" stroke="black" points="36,-76.54 39.5,-86.54 43,-76.54 36,-76.54"/>
</g>
<!-- Invis -->
</g>
</svg>
