<?xml version="1.0" encoding="UTF-8" standalone="no"?>
<!DOCTYPE svg PUBLIC "-//W3C//DTD SVG 1.1//EN"
 "http://www.w3.org/Graphics/SVG/1.1/DTD/svg11.dtd">
<!-- Generated by graphviz version 14.0.2 (20251019.1705)
 -->
<!-- Pages: 1 -->
<svg width="216pt" height="132pt"
 viewBox="0.00 0.00 216.00 132.00" xmlns="http://www.w3.org/2000/svg" xmlns:xlink="http://www.w3.org/1999/xlink">
<g id="graph0" class="graph" transform="scale(1 1) rotate(0) translate(4 128)">
<polygon fill="white" stroke="none" points="-4,4 -4,-128 212.12,-128 212.12,4 -4,4"/>
<g id="clust2" class="cluster">
<title>cluster_associated</title>
</g>
<!-- FunctionalRoadClass -->
<g id="node1" class="node">
<title>FunctionalRoadClass</title>
<g id="a_node1"><a xlink:href="../classes/OpenLR__FunctionalRoadClass.md" xlink:title="&lt;TABLE&gt;">
<polygon fill="lightgray" stroke="none" points="1,-25.88 1,-42.12 119.25,-42.12 119.25,-25.88 1,-25.88"/>
<text xml:space="preserve" text-anchor="start" x="2" y="-29.73" font-family="Arial" font-size="12.00">FunctionalRoadClass</text>
<polygon fill="none" stroke="black" points="0,-24.88 0,-43.12 120.25,-43.12 120.25,-24.88 0,-24.88"/>
</a>
</g>
</g>
<!-- OpenLRThing -->
<g id="node2" class="node">
<title>OpenLRThing</title>
<g id="a_node2"><a xlink:href="../_counters/OpenLR__OpenLRThing.md" xlink:title="&lt;TABLE&gt;">
<polygon fill="lightgray" stroke="none" points="21.62,-97.88 21.62,-114.12 98.62,-114.12 98.62,-97.88 21.62,-97.88"/>
<text xml:space="preserve" text-anchor="start" x="22.62" y="-101.72" font-family="Arial" font-size="12.00">OpenLRThing</text>
<polygon fill="none" stroke="black" points="20.62,-96.88 20.62,-115.12 99.62,-115.12 99.62,-96.88 20.62,-96.88"/>
</a>
</g>
</g>
<!-- FunctionalRoadClass&#45;&gt;OpenLRThing -->
<g id="edge1" class="edge">
<title>FunctionalRoadClass&#45;&gt;OpenLRThing</title>
<path fill="none" stroke="black" d="M60.12,-51.79C60.12,-59.25 60.12,-68.24 60.12,-76.69"/>
<polygon fill="none" stroke="black" points="56.63,-76.54 60.13,-86.54 63.63,-76.54 56.63,-76.54"/>
</g>
<!-- Invis -->
</g>
</svg>
