<?xml version="1.0" encoding="UTF-8" standalone="no"?>
<!DOCTYPE svg PUBLIC "-//W3C//DTD SVG 1.1//EN"
 "http://www.w3.org/Graphics/SVG/1.1/DTD/svg11.dtd">
<!-- Generated by graphviz version 14.0.2 (20251019.1705)
 -->
<!-- Pages: 1 -->
<svg width="305pt" height="232pt"
 viewBox="0.00 0.00 305.00 232.00" xmlns="http://www.w3.org/2000/svg" xmlns:xlink="http://www.w3.org/1999/xlink">
<g id="graph0" class="graph" transform="scale(1 1) rotate(0) translate(4 228)">
<polygon fill="white" stroke="none" points="-4,4 -4,-228 300.5,-228 300.5,4 -4,4"/>
<g id="clust2" class="cluster">
<title>cluster_associated</title>
</g>
<!-- GeoCoordinateLocationReference -->
<g id="node1" class="node">
<title>GeoCoordinateLocationReference</title>
<g id="a_node1"><a xlink:href="../classes/OpenLR__GeoCoordinateLocationReference.md" xlink:title="&lt;TABLE&gt;">
<polygon fill="lightgray" stroke="none" points="110.5,-124.88 110.5,-141.12 295.5,-141.12 295.5,-124.88 110.5,-124.88"/>
<text xml:space="preserve" text-anchor="start" x="111.5" y="-128.72" font-family="Arial" font-size="12.00">GeoCoordinateLocationReference</text>
<polygon fill="none" stroke="black" points="109.5,-123.88 109.5,-142.12 296.5,-142.12 296.5,-123.88 109.5,-123.88"/>
</a>
</g>
</g>
<!-- LocationReference -->
<g id="node2" class="node">
<title>LocationReference</title>
<g id="a_node2"><a xlink:href="../_counters/OpenLR__LocationReference.md" xlink:title="&lt;TABLE&gt;">
<polygon fill="lightgray" stroke="none" points="151.38,-197.88 151.38,-214.12 254.62,-214.12 254.62,-197.88 151.38,-197.88"/>
<text xml:space="preserve" text-anchor="start" x="152.38" y="-201.72" font-family="Arial" font-size="12.00">LocationReference</text>
<polygon fill="none" stroke="black" points="150.38,-196.88 150.38,-215.12 255.62,-215.12 255.62,-196.88 150.38,-196.88"/>
</a>
</g>
</g>
<!-- GeoCoordinateLocationReference&#45;&gt;LocationReference -->
<g id="edge1" class="edge">
<title>GeoCoordinateLocationReference&#45;&gt;LocationReference</title>
<path fill="none" stroke="black" d="M203,-150.71C203,-158.47 203,-167.92 203,-176.74"/>
<polygon fill="none" stroke="black" points="199.5,-176.66 203,-186.66 206.5,-176.66 199.5,-176.66"/>
</g>
<!-- Invis -->
<!-- GeoCoordinateLocationReference&#45;&gt;Invis -->
<!-- Coordinates -->
<g id="node4" class="node">
<title>Coordinates</title>
<g id="a_node4"><a xlink:href="../_counters/OpenLR__Coordinates.md" xlink:title="&lt;TABLE&gt;">
<polygon fill="lightgray" stroke="none" points="17.38,-25.88 17.38,-42.12 84.62,-42.12 84.62,-25.88 17.38,-25.88"/>
<text xml:space="preserve" text-anchor="start" x="18.38" y="-29.73" font-family="Arial" font-size="12.00">Coordinates</text>
<polygon fill="none" stroke="black" points="16.38,-24.88 16.38,-43.12 85.62,-43.12 85.62,-24.88 16.38,-24.88"/>
</a>
</g>
</g>
<!-- GeoCoordinateLocationReference&#45;&gt;Coordinates -->
<g id="edge4" class="edge">
<title>GeoCoordinateLocationReference&#45;&gt;Coordinates</title>
<path fill="none" stroke="black" d="M176.52,-115.1C151.75,-99.3 114.55,-75.55 87.07,-58.02"/>
<polygon fill="black" stroke="black" points="89.02,-55.11 78.7,-52.68 85.25,-61.01 89.02,-55.11"/>
<text xml:space="preserve" text-anchor="middle" x="185.96" y="-86.55" font-family="Arial" font-size="11.00"> hasCoordinates </text>
<text xml:space="preserve" text-anchor="middle" x="185.96" y="-73.05" font-family="Arial" font-size="11.00"> «exactly 1» &#160;</text>
</g>
<!-- Invis&#45;&gt;Coordinates -->
</g>
</svg>
